<svg id="Layer_1" data-name="Layer 1" xmlns="http://www.w3.org/2000/svg" viewBox="0 0 449.17 43.9"><defs><style>.cls-1{fill:#231f20;}</style></defs><path class="cls-1" d="M20.46,1.37c8.64,0,15.9,2.94,15.9,9.42,0,5.88-4.74,8.52-12.12,9.72,7.32.36,14.16,4.14,14.16,10.56,0,7-8.7,10.74-17.4,10.74H0v-.66H5.52c2,0,3-1.14,3-3.42v-32c0-2.46-1-3.6-3-3.6H0V1.37Zm-.54,18.72c6,0,10-3.24,10-8.88,0-5.28-3.3-8.88-8.28-8.88H16.08c-1,0-1.56.72-1.56,2V20.09ZM14.52,39c0,1.38.54,2,1.68,2h5.22c6,0,10.2-4.26,10.2-10,0-6.24-5.1-10.2-11.64-10.14H14.52Z"/><path class="cls-1" d="M77.28,16.31h-.72C74.46,7,70.14,2.09,63.6,2.09H56c-.9,0-1.38.84-1.38,2.1V20.87h2.16c5.88,0,8.94-3.66,9.18-10.62h.72V32.69h-.84c-.06-6.48-2-11.1-8.76-11.1H54.66V38.93c0,1.38.6,2.16,1.86,2.16h7.74c7,0,11.52-6.24,13.2-14.22h.72l-.36,14.94H40.14v-.72h5.52c2,0,3-1.14,3-3.42V5.57c0-2.34-1-3.48-2.94-3.48H40.14V1.37H77.28Z"/><path class="cls-1" d="M87.78,41.09c2,0,3-1.14,3-3.42V5.57c0-2.34-1-3.48-3-3.48H82.26V1.37h22.08v.72H99.78c-2,0-3,1.14-3,3.48v32.1c0,2.28,1,3.42,3,3.42h4.56v.72H82.26v-.72Z"/><path class="cls-1" d="M142.38,34V14.51c0-7.68-2.46-12.42-8.64-12.42H132.6V1.37h18v.72h-1.2c-6.18,0-6.3,6.06-6.3,12.42V43.19h-1.68L116.52,7v22c0,8.1,2.52,12.18,8.1,12.18h2v.72H107.28v-.72h1c5.28,0,7.56-3.6,7.56-11.76V11.93c0-6.54-1.86-9.84-6.42-9.84h-2V1.37h12.54Z"/><path class="cls-1" d="M185.64,43.31c-.72-4.2-1.92-7.08-3.12-8.52-3.36,5.64-7.44,8.28-12.24,8.28-10.86,0-17.88-11.28-17.88-20.34,0-11.46,6.9-22.14,18.12-22.14,4.5,0,8.4,2.4,11.7,7,1.5-1.26,2.64-3.54,2.94-6.84h.72l.9,18.9h-.72c-2.58-10.08-7.5-18.24-15.6-18.24A9.64,9.64,0,0,0,162,5.81c-2,3.12-2.46,9.18-2.46,17,0,7.38,1,12.72,2.46,15.06a9.12,9.12,0,0,0,8.1,4.32c6.36,0,10.5-4.8,10.5-10.86v-3.3a1.94,1.94,0,0,0-2.1-2.16h-5.88v-.72h19.8v.72h-3.84c-1.5,0-2.22,1-2.22,2.46V43.31Z"/><path class="cls-1" d="M203.53,43.31V.65h31.05v7H211.14v10.8h22.52v7H211.14V36.34h23.71v7Z"/><path class="cls-1" d="M267.68,43.31,249.16,12.1V43.31h-7.45V.65h9.18l17.87,30.29V.65h7.45V43.31Z"/><path class="cls-1" d="M318.5,6.48c2.59,3.24,3.78,8.32,3.78,15.28,0,7.24-1.41,12.26-4,15.82-2.92,4.11-8.21,6.32-15.88,6.32s-12.75-2.1-15.93-6.26c-2.65-3.62-4-8.8-4-15.82,0-6.59,1.19-11.67,3.84-15.12,3.18-4.11,8.15-6.65,16.09-6.65S315.26,2.27,318.5,6.48ZM311.15,34c2.32-2.21,3.3-6.86,3.3-12.1s-1-9.66-3-11.71-4.43-3.41-9.13-3.41-7,1.3-9,3.46-3,6.64-3,11.72c0,5.34,1.13,9.88,3.56,12.26,1.84,1.83,4.33,3,8.48,3C306.78,37.21,309.26,35.86,311.15,34Z"/><path class="cls-1" d="M345.76,43.85c-10.2,0-17.71-3.89-17.71-13.5V.65h7.78v29c0,4.75,3.56,7.5,10.1,7.5,5.67,0,9.77-2.7,9.77-7.45V.65h7.78V30.78C363.48,39.53,356.13,43.85,345.76,43.85Z"/><path class="cls-1" d="M400.9,43.31,400.52,39c-1.62,2.38-5.35,4.86-12.58,4.86-6.32,0-11.34-2.16-14.42-5.83-2.54-3-4.21-8.48-4.21-16,0-6.48.75-11.34,4-15.55C376,2.92,380.92,0,388.86,0c8.26,0,13.33,2.75,15.82,7a15.74,15.74,0,0,1,2.27,8.2h-7.62a9.23,9.23,0,0,0-2.27-5.61c-1.62-1.68-4.37-2.65-8-2.65-3.94,0-6.8,1-8.75,3.08s-3,6-3,12.2c0,6.38.59,9.62,2.92,12.26,1.89,2.16,4.64,3.13,9.45,3.13,6,0,9.28-3.18,10.26-6.8.1-.27.05-5.08.05-5.08H387V19.17h20.19V31.86c0,5.24.06,11.29.06,11.45Z"/><path class="cls-1" d="M441.45,43.31V25.6H422V43.31h-7.78V.65H422V18.36h19.49V.65h7.72V43.31Z"/></svg>