<svg width="308" height="314" viewBox="0 0 308 314" fill="none" xmlns="http://www.w3.org/2000/svg">
<path d="M176.055 223.125C175.864 224.084 175.672 225.042 175.481 225.809C176.246 226.575 177.011 227.151 177.584 227.726C176.628 228.684 176.055 229.834 175.099 230.409C168.789 233.86 162.097 237.31 155.596 240.76C148.713 244.594 141.639 248.428 134.756 252.262C128.637 255.52 70.1299 287.341 64.0115 290.791C62.8643 291.558 61.1435 292.325 60.1875 290.791C59.2315 289.066 60.9523 288.107 62.0995 287.532C65.3499 285.615 121.18 255.329 124.431 253.604C131.696 249.77 138.771 245.936 145.845 242.102C153.302 238.077 160.568 234.051 167.833 230.026C169.554 229.067 171.275 227.917 172.996 226.959C172.996 226.767 172.804 226.575 172.804 226.384L169.936 226.959C165.156 228.301 160.376 229.642 155.596 231.176C140.683 235.777 61.3347 259.546 46.4211 264.146C45.4651 264.53 44.3179 264.913 43.1707 264.913C42.4059 265.105 41.4499 264.53 41.2587 263.955C41.0675 263.38 41.6411 262.421 42.2147 262.038C43.1707 261.463 44.3179 261.271 45.4651 260.888C56.1723 257.629 131.314 235.201 142.021 231.943C152.155 228.876 162.288 225.617 172.613 222.55C173.569 222.358 174.908 222.933 176.055 223.125L176.055 223.125Z" fill="#231420"/>
<path d="M169.172 106.004C168.407 102.937 142.977 4.98389 142.021 1.34182C141.639 1.15013 140.874 0.575065 140.3 0C139.918 0.766753 138.962 1.72519 139.153 2.68364C139.536 5.94233 164.965 103.895 165.73 106.962C168.216 116.738 170.701 126.706 173.187 136.674C175.29 145.683 177.776 154.692 179.879 163.702L186.188 190.155C186.762 192.455 187.527 194.755 188.292 197.055C188.483 197.822 189.63 198.397 190.395 198.972C190.777 198.014 191.733 196.864 191.542 196.097C190.968 193.03 190.012 189.963 189.248 186.896C186.762 177.312 184.276 167.536 181.982 157.951C179.879 149.709 177.967 141.274 175.864 133.032C173.76 124.022 171.466 115.013 169.172 106.004Z" fill="#231420"/>
<path d="M205.117 234.435C204.926 235.585 204.544 236.543 204.352 237.502C206.264 240.185 207.794 242.677 209.324 244.978C212.574 250.345 216.016 255.712 219.266 261.079C222.899 267.213 226.723 273.347 230.547 279.481C234.371 285.615 238.004 291.749 241.828 297.883C244.696 302.676 247.564 307.276 250.432 312.068C250.623 312.26 250.623 312.643 250.814 312.643C251.77 313.027 252.917 313.602 253.873 313.985C253.682 312.835 254.064 311.685 253.491 310.727C247.946 301.142 242.21 291.75 236.474 282.357L236.474 282.357C231.885 274.881 227.488 267.405 222.899 259.929L211.427 241.527C210.28 239.61 209.132 237.502 207.794 235.777C207.22 235.01 206.073 234.818 205.117 234.435Z" fill="#231420"/>
<path d="M174.907 209.132L174.908 209.132C171.084 207.982 167.26 207.023 163.627 206.257C147.375 201.081 131.123 195.714 115.062 190.538C112.959 189.963 70.7035 175.203 68.6003 174.436C68.0267 174.053 67.2619 173.67 66.4971 173.861C65.7323 173.861 65.1587 174.436 64.3939 174.82C64.7763 175.586 64.9675 176.545 65.5411 176.928C66.3059 177.503 67.2619 177.695 68.2179 178.078C88.6763 184.596 149.096 205.106 169.554 211.624C171.084 212.007 172.422 212.774 173.952 212.966C174.716 213.157 175.672 212.582 176.437 212.391C176.055 211.432 175.864 210.665 175.481 209.899C175.481 209.515 175.099 209.324 174.908 209.132C176.055 208.748 177.967 209.707 177.776 207.982C177.776 206.832 176.628 205.49 175.481 204.915C168.024 200.698 160.185 196.864 152.537 192.455C141.639 186.129 130.932 179.42 120.033 173.094C111.812 168.302 53.6867 135.524 45.4651 130.923C44.5091 130.54 43.5531 130.156 42.5971 129.965C42.0235 129.965 41.2587 130.348 41.0675 130.731C40.8763 131.115 40.8763 132.073 41.2587 132.457L41.2589 132.457C41.8324 133.032 42.4059 133.607 43.1707 133.99C56.7459 141.658 120.033 177.503 133.608 185.171C145.845 192.263 157.891 199.164 170.128 206.257C171.848 207.215 173.378 208.173 174.907 209.132Z" fill="#231420"/>
<path d="M217.736 220.633H216.016C214.104 221.4 213.912 222.55 215.251 223.508C215.824 223.892 216.78 224.275 217.545 224.467L302.438 242.869C303.203 243.061 304.159 243.252 305.115 243.061C305.88 242.869 306.453 242.102 307.218 241.527C306.644 241.144 306.262 240.185 305.688 239.994C303.012 239.227 300.144 238.652 297.276 238.077L297.276 238.077C272.228 232.518 247.372 227.151 222.325 221.783L217.736 220.633Z" fill="#231420"/>
<path d="M211.236 228.876C210.662 229.259 210.853 230.218 210.662 230.793C211.618 231.751 212.383 232.326 213.148 232.901C237.239 249.77 261.33 266.83 285.421 283.699C287.142 285.04 288.672 286.382 290.584 287.532C291.157 287.916 292.304 287.532 293.26 287.532C292.878 286.766 292.878 285.615 292.304 285.232C287.907 281.59 283.318 278.14 278.729 274.881C258.844 260.888 238.96 246.703 219.075 232.71C216.972 231.176 215.06 229.834 212.956 228.684C212.574 228.492 211.618 228.492 211.236 228.876Z" fill="#231420"/>
<path d="M180.07 230.793C179.114 230.601 178.349 230.218 177.584 230.026C176.246 231.176 175.099 231.943 174.334 232.901C167.26 239.227 160.185 245.361 152.92 251.495C144.698 258.587 136.286 265.488 127.873 272.388L127.872 272.389C122.901 276.606 118.121 280.632 113.15 284.849C112.576 285.232 112.194 285.615 112.003 285.999C111.812 286.574 111.812 287.532 111.812 288.299C112.576 288.299 113.532 288.491 114.106 288.107C117.165 285.615 120.416 283.315 123.475 280.632C137.432 268.747 151.39 257.054 165.348 245.169C169.745 241.527 174.143 238.077 178.54 234.435C178.732 234.051 179.114 233.86 179.305 233.476C179.496 232.518 179.879 231.751 180.07 230.793Z" fill="#231420"/>
<path d="M197.469 191.88C197.087 193.605 197.087 195.522 196.896 197.439C197.469 198.014 197.852 198.589 198.425 198.589C198.999 198.589 199.955 198.206 200.146 197.822C200.72 196.864 201.102 195.905 201.293 194.755C203.014 183.829 204.735 172.711 206.456 161.785C208.368 150.092 224.428 46.7719 226.34 35.0789C226.532 33.5454 227.488 31.4369 225.384 31.0535C223.472 30.6701 223.09 32.9704 222.899 34.5039C221.752 40.6379 206.456 138.591 205.5 144.725L197.469 191.88Z" fill="#231420"/>
<path d="M187.336 198.397C187.144 197.247 186.571 196.289 186.38 195.139L173.187 167.536C168.024 156.993 129.784 74.1833 124.813 63.8322C124.431 62.682 123.666 61.5319 122.901 60.5735C122.519 60.1901 121.372 59.8067 120.989 59.9984C120.416 60.1901 120.033 61.1485 120.033 61.7236C120.224 62.682 120.607 63.6405 120.989 64.4072C124.622 72.0748 161.715 152.2 165.348 159.868L177.967 186.321L177.967 186.322C179.879 190.347 181.791 194.372 183.894 198.397C184.085 198.972 184.659 199.356 185.232 199.739C185.806 199.931 186.571 200.123 186.762 199.931C187.144 199.547 187.527 198.972 187.336 198.397Z" fill="#231420"/>
<path d="M195.175 241.144C195.175 240.185 194.984 239.419 194.984 238.46C194.601 238.077 194.219 237.502 193.454 237.502C192.88 237.502 192.116 238.077 191.924 238.46C191.542 239.61 191.16 240.952 191.16 242.294C190.012 259.929 189.056 277.373 187.909 295.008C187.527 300.375 187.336 305.551 186.953 310.918C186.953 312.26 186.762 313.794 188.483 313.985C190.395 314.177 190.395 312.452 190.586 311.11C190.968 306.509 191.16 301.717 191.542 297.117C192.498 283.89 193.263 270.664 194.219 257.437C194.601 252.07 194.984 246.511 195.175 241.144Z" fill="#231420"/>
<path d="M205.308 304.593C205.308 305.743 205.691 306.701 205.882 308.235C206.456 308.618 207.22 309.193 207.794 309.577C208.176 308.618 208.941 307.66 208.941 306.893C208.559 302.101 207.794 297.117 207.22 292.325C206.264 284.849 205.117 277.565 204.161 270.089C203.205 262.996 202.058 255.712 201.102 248.62C200.72 245.744 200.337 242.677 199.955 239.802C199.955 239.227 199.764 238.652 199.381 238.268C198.999 237.693 198.043 237.118 197.66 237.31C197.087 237.31 196.513 238.268 196.513 238.844C196.322 240.185 196.513 241.527 196.704 242.869C197.66 250.536 198.808 258.012 199.955 265.68C201.102 274.114 202.44 282.74 203.588 291.366L205.308 304.593Z" fill="#231420"/>
<path d="M288.098 220.441C288.672 220.441 289.054 220.25 289.628 220.25C289.819 220.058 290.584 219.483 290.584 219.291C290.584 218.716 290.01 217.95 289.628 217.758C288.098 217.374 286.568 216.991 285.039 216.991C264.007 216.799 242.784 216.799 221.752 216.608C220.222 216.608 218.692 216.416 217.354 216.608C216.398 216.799 215.633 217.566 214.868 218.141C215.442 218.716 216.016 219.866 216.78 219.866C219.648 220.058 222.516 220.058 225.384 220.058C241.445 220.058 257.697 220.058 273.949 220.25C278.729 220.25 283.318 220.441 288.098 220.441Z" fill="#231420"/>
<path d="M104.928 99.6779C104.546 99.8696 104.546 101.211 104.355 101.978C106.649 105.045 108.752 107.92 111.047 110.412C118.312 119.805 159.612 173.67 166.877 183.062C170.319 187.663 173.952 192.455 177.393 197.055C178.158 198.206 178.923 199.547 179.879 200.698C180.261 201.273 180.835 201.848 181.408 202.039C182.173 202.423 183.129 202.231 183.894 202.231C183.703 201.464 184.085 200.506 183.703 199.931C181.408 196.672 179.114 193.413 176.628 190.346C170.319 182.104 164.2 174.053 157.891 165.81C153.876 160.443 115.827 110.987 111.812 105.62C110.282 103.703 108.943 101.786 107.414 100.061C106.84 99.6779 105.693 99.4862 104.928 99.6779Z" fill="#231420"/>
<path d="M271.846 166.002C271.081 165.81 270.316 165.427 269.552 165.235C266.875 167.152 264.58 168.686 262.095 170.411C255.212 175.011 248.328 179.804 241.445 184.404C235.518 188.238 229.782 192.072 224.046 196.097C220.031 198.781 216.207 201.464 212.383 204.148C212 204.34 211.427 204.723 211.427 205.106C211.236 205.681 211.044 206.448 211.427 207.023C211.618 207.407 212.765 207.407 213.148 207.215L213.148 207.215C215.825 205.681 218.501 204.148 220.987 202.423C227.679 197.822 234.562 193.222 241.254 188.621L241.254 188.621C246.99 184.596 252.726 180.57 258.462 176.737C261.904 174.436 265.345 172.328 268.787 170.027C269.552 169.452 270.316 169.069 270.699 168.494C271.272 167.727 271.464 166.769 271.846 166.002Z" fill="#231420"/>
<path d="M209.706 191.88C208.368 194.18 206.647 196.097 205.117 198.206C206.838 193.413 208.368 188.813 210.28 184.212C213.721 175.011 235.518 119.997 238.96 110.796L238.96 110.796C239.151 110.221 239.342 109.646 239.342 109.071C239.151 108.496 238.96 107.729 238.577 107.537C238.004 107.345 237.239 107.345 236.856 107.729C236.092 108.496 235.518 109.262 235.136 110.221C229.973 123.064 207.029 181.72 202.058 194.564C201.676 195.522 201.293 196.48 201.293 197.439C201.293 198.206 201.484 199.356 202.058 199.547C202.632 199.931 203.588 199.356 204.352 198.972L205.117 198.206C205.5 199.356 205.691 200.506 205.691 201.656C206.838 200.889 208.176 200.314 208.75 199.356C214.295 191.113 219.84 182.871 225.193 174.436C231.694 164.277 271.081 100.828 277.391 90.4768C277.964 89.7101 278.538 88.56 278.729 87.6015C278.92 87.0265 278.729 86.068 278.347 85.8763C277.773 85.6846 276.817 85.6846 276.435 86.068C275.288 87.2181 274.14 88.7516 273.376 90.0935C270.508 94.8857 234.944 153.159 231.694 157.951L231.693 157.953C224.428 169.262 217.162 180.571 209.706 191.88Z" fill="#231420"/>
<path d="M252.726 191.88C250.623 192.838 248.52 193.605 246.416 194.564C236.092 198.781 225.958 202.998 215.442 207.215C215.06 207.407 214.486 207.598 214.295 207.982C213.912 208.748 213.721 209.707 213.339 210.474C214.104 210.665 214.868 211.24 215.633 211.049C216.78 210.665 217.736 210.09 218.884 209.707C238.386 201.656 258.08 193.413 277.582 185.363C278.347 185.171 279.303 184.787 279.876 184.212C280.259 183.829 280.832 182.871 280.641 182.487C280.45 182.104 279.685 181.529 279.112 181.529C278.156 181.529 277.2 181.72 276.244 182.104L252.726 191.88Z" fill="#231420"/>
<path d="M168.789 216.991C170.51 217.183 172.422 217.183 174.525 217.374C174.716 216.608 175.481 215.649 175.099 215.458C174.716 214.691 173.952 213.924 173.187 213.924C169.745 213.541 166.112 213.349 162.48 212.966C147.566 211.24 31.3163 194.564 16.4026 192.838C12.005 192.455 7.60745 191.88 3.20984 191.497C2.82745 191.497 2.06262 191.497 1.68024 191.688C1.10663 192.072 0.150635 192.647 0.150635 193.03C0.341827 193.605 0.915466 194.564 1.48904 194.755C3.20987 195.139 4.93066 195.33 6.65146 195.522C26.9187 197.631 148.522 214.882 168.789 216.991Z" fill="#231420"/>
<path d="M210.662 204.148H210.662C211.809 203.189 212.765 202.423 213.721 201.848C226.34 188.621 238.96 175.586 251.579 162.36C252.152 161.593 252.917 161.018 253.682 160.251C254.638 159.293 255.02 158.143 254.064 157.376C253.491 156.993 251.961 157.184 251.388 157.759C249.476 159.485 247.755 161.401 245.843 163.318C235.136 174.245 224.428 185.363 213.721 196.289C212.383 197.631 211.044 198.589 209.897 199.931C209.324 200.506 208.75 201.081 208.559 201.848C208.368 202.614 208.559 203.381 208.941 203.956C209.132 204.148 210.088 204.148 210.662 204.148Z" fill="#231420"/>
<path d="M248.902 275.648C249.284 275.264 249.284 274.306 249.476 273.539C247.755 271.622 246.034 269.897 244.313 268.172C234.18 257.437 224.237 246.894 214.104 236.16C213.339 235.201 212.574 234.051 211.618 233.093C210.662 232.134 209.706 231.368 208.368 232.518C207.053 233.46 207.952 234.586 208.71 235.534L208.75 235.585C214.677 241.911 220.413 248.045 226.34 254.37C232.65 261.079 239.151 267.788 245.46 274.498L245.461 274.498C245.843 274.881 246.416 275.456 246.99 275.648C247.564 275.839 248.52 276.031 248.902 275.648Z" fill="#231420"/>
<path d="M212 259.929H211.809C209.324 252.837 206.838 245.744 204.161 238.844C203.97 238.268 203.97 237.693 203.588 237.502C203.014 236.927 202.058 236.16 201.676 236.352C201.102 236.543 200.528 237.502 200.337 238.268C200.146 238.844 200.337 239.61 200.528 240.185C204.352 250.537 208.368 260.696 212.192 271.047L215.633 281.398C216.016 282.357 216.589 283.507 217.163 284.274C217.545 284.849 218.31 284.849 219.075 285.232C219.266 284.465 219.84 283.699 219.84 283.124C219.84 281.973 219.457 281.015 219.075 279.865C216.78 273.156 214.295 266.638 212 259.929Z" fill="#231420"/>
<path d="M174.716 287.724C174.908 288.107 175.672 288.491 176.628 289.258C177.393 287.532 177.967 286.574 178.349 285.807L183.512 266.255C185.806 258.012 188.1 249.961 190.395 241.719C190.777 240.76 190.968 239.61 190.968 238.652C190.968 238.077 190.395 237.31 190.012 237.118C189.63 236.927 188.674 237.118 188.292 237.502C187.718 238.077 187.336 238.844 187.144 239.61C183.129 254.754 178.923 269.897 174.908 285.04C174.525 285.807 174.525 286.957 174.716 287.724Z" fill="#231420"/>
<path d="M263.624 249.195C264.772 249.195 265.345 248.428 265.154 246.894C264.198 246.319 263.242 245.553 262.095 245.169C256.741 242.869 251.388 240.952 246.225 238.652C236.665 234.626 227.296 230.409 217.736 226.192C216.78 225.809 215.633 225.425 214.677 225.234C214.104 225.042 213.148 225.617 212.956 226C212.765 226.384 213.148 227.534 213.53 227.917C214.104 228.492 214.868 228.684 215.633 229.067C227.105 233.86 238.386 238.844 249.858 243.636C253.682 245.361 257.697 246.894 261.521 248.62C262.095 249.003 262.86 249.195 263.624 249.195Z" fill="#231420"/>
<path d="M180.261 205.298C180.644 204.915 180.644 204.148 180.835 203.381C180.07 202.423 179.305 201.464 178.158 201.081C167.068 191.497 133.417 162.552 122.328 152.967C121.563 152.2 120.798 151.434 119.842 151.05C119.268 150.667 118.312 150.859 117.548 150.859V150.859C117.548 151.817 117.548 152.776 117.93 153.542C118.504 154.501 119.651 155.076 120.416 155.843C131.505 165.619 165.348 194.755 176.437 204.531C177.011 205.106 177.584 205.49 178.349 205.681C178.923 205.873 179.879 205.681 180.261 205.298Z" fill="#231420"/>
<path d="M252.728 208.365C255.786 207.79 258.845 207.215 262.477 206.448C262.86 205.873 263.433 205.106 264.007 204.531C263.242 204.148 262.477 203.381 261.712 203.381C259.992 203.381 258.271 203.573 256.55 203.956C249.858 205.298 242.975 206.64 236.283 208.173C229.591 209.515 223.09 211.049 216.398 212.582C215.633 212.774 214.104 212.774 214.486 214.307C214.677 215.841 216.016 215.649 217.163 215.458C220.796 214.882 224.237 214.116 227.87 213.349C236.092 211.624 244.504 209.899 252.726 208.365L252.728 208.365Z" fill="#231420"/>
<path d="M184.468 235.777C183.703 236.16 183.32 236.735 182.747 237.31C182.747 237.118 182.747 236.927 182.938 236.735C183.512 235.585 184.085 234.243 182.747 233.285C181.217 232.326 180.07 233.476 179.305 234.435C173.378 241.911 167.642 249.386 161.906 256.862C161.141 257.821 160.759 258.779 160.376 259.929C160.376 260.504 160.759 261.271 161.141 261.654C161.332 261.846 162.288 261.463 162.671 261.079C165.348 258.012 167.833 254.754 170.51 251.687C174.143 247.086 177.776 242.677 181.408 238.268C181.791 237.885 182.364 237.502 182.747 237.31C180.07 242.677 177.584 248.045 175.29 253.604C172.422 259.546 169.363 265.488 166.495 271.431C165.921 272.772 165.156 273.922 164.583 275.073C164.009 276.223 163.627 277.565 165.156 278.14C166.495 278.715 167.068 277.373 167.642 276.414C170.128 271.431 172.422 266.447 174.908 261.463L185.232 241.335C185.997 240.185 186.571 238.844 186.953 237.502C187.144 236.927 186.762 236.16 186.762 235.393C185.997 235.585 185.041 235.393 184.468 235.777Z" fill="#231420"/>
<path d="M192.307 191.688C192.307 193.413 192.498 195.139 192.689 197.247C193.263 197.631 193.836 198.589 194.41 198.589C194.984 198.397 195.94 197.439 195.94 196.864C196.131 194.372 196.131 191.88 195.94 189.388C195.366 179.42 189.248 63.2571 188.865 53.2893V53.2892C188.865 51.7558 188.865 50.2223 188.483 48.6888C188.483 47.9221 187.718 47.347 187.144 46.7719C186.571 47.5387 185.615 48.1137 185.615 48.8805C185.424 51.5641 185.615 54.2478 185.615 56.9314C185.997 66.3241 191.924 182.295 192.307 191.688Z" fill="#231420"/>
<path d="M170.892 221.975C171.657 221.975 172.422 221.783 173.76 221.592C174.143 221.208 174.716 220.633 174.908 219.866C174.143 219.291 173.378 218.333 172.613 218.333C169.745 218.333 166.877 218.716 164.009 218.908C154.832 219.675 92.1179 224.275 82.9403 225.042C81.6019 225.042 79.6899 225.042 79.8811 226.959C80.0723 228.876 81.9843 228.684 83.3227 228.492C92.3091 227.726 154.832 223.125 163.818 222.358C166.304 222.167 168.598 222.167 170.892 221.975Z" fill="#231420"/>
</svg>
