<svg id="Layer_1" data-name="Layer 1" xmlns="http://www.w3.org/2000/svg" viewBox="0 0 373.55 42"><defs><style>.cls-1{fill:#231f20;}</style></defs><title>impact-map-logo</title><path class="cls-1" d="M20.41,39.59a.34.34,0,0,1-.31-.2l-1.81-3.76a.36.36,0,0,1,.16-.47.35.35,0,0,1,.47.17l1.8,3.76a.34.34,0,0,1-.16.46A.28.28,0,0,1,20.41,39.59Z"/><path class="cls-1" d="M18.59,41.51a.35.35,0,0,1-.35-.29l-.85-5.38a.35.35,0,1,1,.69-.11l.85,5.38a.35.35,0,0,1-.29.4Z"/><path class="cls-1" d="M16.3,42h0a.35.35,0,0,1-.32-.37l.38-5.84a.35.35,0,1,1,.7,0l-.39,5.84A.34.34,0,0,1,16.3,42Z"/><path class="cls-1" d="M13.59,40.35a.23.23,0,0,1-.14,0,.33.33,0,0,1-.17-.46l2.08-4.51a.35.35,0,1,1,.63.29l-2.08,4.51A.36.36,0,0,1,13.59,40.35Z"/><path class="cls-1" d="M11.14,38.62a.36.36,0,0,1-.26-.11.35.35,0,0,1,0-.49l3.69-3.43a.35.35,0,0,1,.48.51l-3.7,3.43A.33.33,0,0,1,11.14,38.62Z"/><path class="cls-1" d="M10.16,35.92a.37.37,0,0,1-.33-.23.35.35,0,0,1,.2-.45l4.08-1.6a.36.36,0,0,1,.45.2.34.34,0,0,1-.19.45l-4.09,1.6Z"/><path class="cls-1" d="M8.32,33.61a.35.35,0,0,1,0-.7L14,32.6a.35.35,0,0,1,.37.33.34.34,0,0,1-.33.36l-5.65.32Z"/><path class="cls-1" d="M14.06,32.24H14l-3.91-.89a.35.35,0,0,1,.16-.68l3.91.89a.36.36,0,0,1,.26.42A.35.35,0,0,1,14.06,32.24Z"/><path class="cls-1" d="M14.48,31.27a.35.35,0,0,1-.22-.08l-2.69-2.33a.35.35,0,1,1,.45-.53l2.69,2.33a.35.35,0,0,1,0,.49A.36.36,0,0,1,14.48,31.27Z"/><path class="cls-1" d="M16.14,30a.33.33,0,0,1-.33-.25l-1.36-4.48a.35.35,0,0,1,.23-.43.34.34,0,0,1,.43.23l1.36,4.48a.34.34,0,0,1-.23.44Z"/><path class="cls-1" d="M17.19,29.84h0a.34.34,0,0,1-.34-.35l.16-7a.34.34,0,0,1,.34-.34h0a.34.34,0,0,1,.34.36l-.16,7A.34.34,0,0,1,17.19,29.84Z"/><path class="cls-1" d="M18.23,30a.27.27,0,0,1-.13,0,.35.35,0,0,1-.2-.45l1.83-4.74a.35.35,0,0,1,.65.25l-1.83,4.74A.33.33,0,0,1,18.23,30Z"/><path class="cls-1" d="M19.15,30.56a.37.37,0,0,1-.22-.08.34.34,0,0,1-.06-.48l3.19-4.14a.35.35,0,0,1,.56.42l-3.2,4.14A.35.35,0,0,1,19.15,30.56Z"/><path class="cls-1" d="M19.84,31.35a.35.35,0,0,1-.28-.13.36.36,0,0,1,.07-.49l4.5-3.43a.36.36,0,0,1,.49.07.35.35,0,0,1-.06.49l-4.51,3.42A.31.31,0,0,1,19.84,31.35Z"/><path class="cls-1" d="M20.24,32.33a.34.34,0,0,1-.08-.68l4.75-1.17a.35.35,0,0,1,.17.68l-4.76,1.16Z"/><path class="cls-1" d="M25.64,34.41h-.06l-5.36-1A.35.35,0,0,1,20,33a.34.34,0,0,1,.4-.28l5.36,1a.35.35,0,0,1,.27.41A.34.34,0,0,1,25.64,34.41Z"/><path class="cls-1" d="M22.82,35.85a.53.53,0,0,1-.16,0l-2.83-1.44a.35.35,0,0,1,.32-.62L23,35.19a.35.35,0,0,1-.16.66Z"/><path class="cls-1" d="M21.86,38a.36.36,0,0,1-.26-.11l-2.48-2.69a.35.35,0,1,1,.51-.47l2.48,2.69a.35.35,0,0,1,0,.49A.33.33,0,0,1,21.86,38Z"/><path class="cls-1" d="M8.85,15.52a.28.28,0,0,1-.23-.12A.29.29,0,0,1,8.67,15L19.82,6.11a.3.3,0,0,1,.37.47L9,15.45A.26.26,0,0,1,8.85,15.52Z"/><path class="cls-1" d="M15.26,30.4a.3.3,0,0,1-.25-.14L8.14,19a.3.3,0,0,1,.1-.41.29.29,0,0,1,.4.1L15.52,30a.31.31,0,0,1-.1.41A.29.29,0,0,1,15.26,30.4Z"/><path class="cls-1" d="M6.78,23.1h0a.31.31,0,0,1-.29-.31l.17-3.68A.31.31,0,0,1,7,18.83a.29.29,0,0,1,.28.31l-.16,3.68A.3.3,0,0,1,6.78,23.1Z"/><path class="cls-1" d="M4.82,23.33a.18.18,0,0,1-.1,0,.29.29,0,0,1-.18-.37l1.38-4a.29.29,0,0,1,.37-.18.29.29,0,0,1,.19.37l-1.38,4A.3.3,0,0,1,4.82,23.33Z"/><path class="cls-1" d="M3,21.63a.27.27,0,0,1-.2-.08.29.29,0,0,1,0-.41l2.53-2.71a.3.3,0,0,1,.42,0,.29.29,0,0,1,0,.42L3.22,21.54A.31.31,0,0,1,3,21.63Z"/><path class="cls-1" d="M.66,20.41a.29.29,0,0,1-.27-.17.31.31,0,0,1,.14-.4l4.36-2a.3.3,0,0,1,.4.14.29.29,0,0,1-.15.39L.79,20.38A.31.31,0,0,1,.66,20.41Z"/><path class="cls-1" d="M.84,18.49a.29.29,0,0,1-.06-.58l3.88-.84A.3.3,0,0,1,5,17.3a.28.28,0,0,1-.22.35L.9,18.49Z"/><path class="cls-1" d="M4.68,16.9h0L.25,16.26a.29.29,0,1,1,.09-.58l4.38.63a.3.3,0,0,1,0,.59Z"/><path class="cls-1" d="M4.88,16.17a.27.27,0,0,1-.12,0L.88,14.37A.29.29,0,0,1,.73,14a.3.3,0,0,1,.39-.15L5,15.6a.29.29,0,0,1,.15.39A.3.3,0,0,1,4.88,16.17Z"/><path class="cls-1" d="M5.31,15.54a.27.27,0,0,1-.2-.08L2.2,12.84a.29.29,0,0,1,0-.41.31.31,0,0,1,.42,0L5.51,15a.3.3,0,0,1,0,.42A.28.28,0,0,1,5.31,15.54Z"/><path class="cls-1" d="M5.93,15.09a.29.29,0,0,1-.27-.17L3.89,11.08A.29.29,0,0,1,4,10.69a.3.3,0,0,1,.39.14L6.2,14.67a.3.3,0,0,1-.15.39Z"/><path class="cls-1" d="M6.65,14.82a.3.3,0,0,1-.29-.26l-.47-4.45a.29.29,0,0,1,.26-.32.3.3,0,0,1,.33.26L7,14.5a.29.29,0,0,1-.26.32Z"/><path class="cls-1" d="M7.42,14.9H7.35a.28.28,0,0,1-.22-.35L8,10.79a.29.29,0,0,1,.35-.22.3.3,0,0,1,.23.35L7.7,14.67A.29.29,0,0,1,7.42,14.9Z"/><path class="cls-1" d="M8.12,15.18a.33.33,0,0,1-.16,0,.3.3,0,0,1-.08-.41l2.34-3.64a.31.31,0,0,1,.41-.09.3.3,0,0,1,.09.41L8.37,15A.29.29,0,0,1,8.12,15.18Z"/><path class="cls-1" d="M9.09,16.33a.29.29,0,0,1-.1-.57l4.38-1.56a.29.29,0,0,1,.38.18.31.31,0,0,1-.18.38L9.18,16.31A.15.15,0,0,1,9.09,16.33Z"/><path class="cls-1" d="M13.88,17.13h0l-4.65-.05a.29.29,0,0,1-.29-.3.27.27,0,0,1,.29-.29l4.66,0a.31.31,0,0,1,.29.3A.29.29,0,0,1,13.88,17.13Z"/><path class="cls-1" d="M13.71,19.32l-.09,0L9,17.82a.31.31,0,0,1-.19-.38.3.3,0,0,1,.37-.19l4.59,1.49a.28.28,0,0,1,.19.37A.29.29,0,0,1,13.71,19.32Z"/><path class="cls-1" d="M12.63,21.71a.35.35,0,0,1-.19-.06L8.59,18.44a.29.29,0,0,1,0-.42A.3.3,0,0,1,9,18l3.86,3.21a.29.29,0,0,1-.19.52Z"/><path class="cls-1" d="M8.5,22.79a.31.31,0,0,1-.29-.22L7.33,19.1a.29.29,0,0,1,.21-.36A.3.3,0,0,1,7.9,19l.88,3.47a.28.28,0,0,1-.21.36Z"/><path class="cls-1" d="M20.94,3.58a.22.22,0,0,1-.22-.19L20.32.5a.21.21,0,0,1,.19-.25.22.22,0,0,1,.25.18l.4,2.9a.22.22,0,0,1-.19.25Z"/><path class="cls-1" d="M21.87,10.5a.22.22,0,0,1-.22-.2l-.27-3.36a.22.22,0,1,1,.44,0l.27,3.35a.22.22,0,0,1-.2.24Z"/><path class="cls-1" d="M20.19,10.7h-.06a.22.22,0,0,1-.16-.27l.86-3.58a.22.22,0,1,1,.43.11l-.86,3.58A.21.21,0,0,1,20.19,10.7Z"/><path class="cls-1" d="M18.69,9.75l-.12,0a.23.23,0,0,1-.07-.31l1.79-2.84a.22.22,0,0,1,.31-.07.22.22,0,0,1,.07.31L18.88,9.65A.22.22,0,0,1,18.69,9.75Z"/><path class="cls-1" d="M16.54,7.12A.22.22,0,0,1,16.33,7a.22.22,0,0,1,.13-.28l3.17-1.12a.22.22,0,0,1,.29.13.22.22,0,0,1-.14.28L16.61,7.1Z"/><path class="cls-1" d="M17,5.42A.22.22,0,0,1,17,5l2.55,0h0a.22.22,0,1,1,0,.44L17,5.42Z"/><path class="cls-1" d="M19.67,4.8h-.09l-2.69-1.1a.22.22,0,0,1-.13-.29.22.22,0,0,1,.29-.12l2.7,1.1a.21.21,0,0,1,.12.28A.21.21,0,0,1,19.67,4.8Z"/><path class="cls-1" d="M19.94,4.26a.23.23,0,0,1-.14,0L16.93,2a.22.22,0,0,1,.27-.35l2.87,2.2a.22.22,0,0,1-.13.4Z"/><path class="cls-1" d="M20.37,3.84a.22.22,0,0,1-.18-.1L18.44.94a.22.22,0,0,1,.07-.3.22.22,0,0,1,.31.07L20.56,3.5a.22.22,0,0,1-.07.31A.24.24,0,0,1,20.37,3.84Z"/><path class="cls-1" d="M21.53,3.52h0a.21.21,0,0,1-.19-.24L21.6.59a.22.22,0,0,1,.24-.2.23.23,0,0,1,.2.25l-.29,2.69A.22.22,0,0,1,21.53,3.52Z"/><path class="cls-1" d="M22.12,3.67l-.09,0a.23.23,0,0,1-.12-.29L23.23.14A.22.22,0,0,1,23.52,0a.22.22,0,0,1,.12.29L22.32,3.53A.22.22,0,0,1,22.12,3.67Z"/><path class="cls-1" d="M22.63,4a.23.23,0,0,1-.15-.05.22.22,0,0,1,0-.31l1.89-2.2a.22.22,0,0,1,.32,0,.23.23,0,0,1,0,.32L22.8,3.92A.23.23,0,0,1,22.63,4Z"/><path class="cls-1" d="M23,4.47a.22.22,0,0,1-.2-.12.23.23,0,0,1,.1-.3l2.48-1.24a.21.21,0,0,1,.29.1.22.22,0,0,1-.1.3L23.1,4.45Z"/><path class="cls-1" d="M23.2,5a.23.23,0,0,1-.22-.2.22.22,0,0,1,.2-.24l3.33-.26a.23.23,0,0,1,.24.21.22.22,0,0,1-.2.24L23.22,5Z"/><path class="cls-1" d="M26.29,6.28h0l-3.1-.62A.24.24,0,0,1,23,5.38a.22.22,0,0,1,.26-.17l3.09.63a.23.23,0,0,1,.18.26A.22.22,0,0,1,26.29,6.28Z"/><path class="cls-1" d="M25.55,7.6a.16.16,0,0,1-.1,0L22.89,6.2a.23.23,0,0,1-.09-.31.24.24,0,0,1,.3-.09l2.56,1.39a.24.24,0,0,1,.09.3A.23.23,0,0,1,25.55,7.6Z"/><path class="cls-1" d="M24.47,8.94a.25.25,0,0,1-.17-.08L22.45,6.62a.22.22,0,1,1,.34-.29l1.86,2.24a.24.24,0,0,1,0,.32A.3.3,0,0,1,24.47,8.94Z"/><path class="cls-1" d="M23,9.38a.22.22,0,0,1-.21-.14L21.9,6.88A.22.22,0,0,1,22,6.59a.21.21,0,0,1,.28.13l.9,2.36a.23.23,0,0,1-.13.29Z"/><path class="cls-1" d="M35.86,39c1.85,0,2.81-1.07,2.81-3.2V5.7c0-2.2-1-3.27-2.81-3.27H30.68V1.76h20.7v.67H47.11c-1.86,0-2.82,1.07-2.82,3.27V35.79c0,2.13,1,3.2,2.82,3.2h4.27v.68H30.68V39Z"/><path class="cls-1" d="M100.42,2.43c-1.91,0-3,1.24-3,3.38V35.73A3,3,0,0,0,100.65,39h4.84v.68H85.07V39H89c1.86,0,2.81-1.07,2.81-3.26V2.88l-14.17,37h-.51L62.8,3.22V30.16c0,5.91,1.85,8.83,5.51,8.83h1.74v.68H54.14V39h2.13c4.22,0,5.85-2.92,5.85-8.83V6.54c0-2.76-1.52-4.11-4.55-4.11H54.14V1.76H68.76L80.12,31.29,91.42,1.76h14.07v.67Z"/><path class="cls-1" d="M121.79,31.17v1.18c0,4.39.29,6.64,3,6.64h3.88v.68H108.3V39h5.06c1.85,0,2.81-1.07,2.81-3.2V5.7c0-2.2-1-3.27-2.81-3.27h-5.18V1.76h20.19C136.64,1.76,143,5.13,143,12c0,6.19-7.48,10-14.34,10h-6.87Zm5.63-9.84c6.58,0,9.22-3.66,9.22-9.34,0-6.18-3-9.56-8.94-9.56H124c-1.68,0-2.25.51-2.25,2.14V21.33Z"/><path class="cls-1" d="M178,39.67H160.43V39h4.73c1.4,0,2.13-.73,2.13-1.8a4,4,0,0,0-.28-1.57l-3-8.78H150c-1.29,3.6-2.08,6.36-2.08,7.48,0,2.59,2.36,4.67,6.13,4.67h1.41v.68H139.28V39h.4c4.33,0,6.35-3.65,8-8.15l11-29.7h2.14L172,33.82c.85,2.3,1.46,3.71,2.08,4.21a4.46,4.46,0,0,0,3,1h1ZM157.28,6.93l-6.92,18.84h13.33Z"/><path class="cls-1" d="M208.69,25.89c-.34,8.43-6.19,15-13.73,15-8.77,0-16.76-8.61-16.76-19.69C178.2,11,185.29,1,194.06,1c4.11,0,7.48,2,10.13,6.35A10.64,10.64,0,0,0,207.56,1h.68V18.12h-.68c-2.19-8.32-6.3-16.36-13.33-16.36-3.26,0-5.73,1.69-7.48,5.06-1.35,2.64-1.8,8.66-1.8,15.52,0,5.74.79,11.65,2.48,14a8.9,8.9,0,0,0,7.48,3.77c7.48,0,12.65-6.24,13.1-14.17Z"/><path class="cls-1" d="M245.24,16c-1.18-7.93-3.71-13.56-10.57-13.56-2,0-2.76.4-2.76,1.8V35.79q0,3.2,2.87,3.2h3.88v.68H218.75V39h4.78c1.86,0,2.76-1.07,2.76-3.2V4.23c0-1.18-.62-1.8-2.7-1.8-7.14,0-9.67,6.25-10.74,13.56h-.73V1.76h33.8V16Z"/><path class="cls-1" d="M288.85,40.85V13.09l-10,27.76h-7.17L262,13.09V40.85H255.3V1.76h9.8l10.24,29.88L286,1.76h9.5V40.85Z"/><path class="cls-1" d="M306.71,40.85h-7.33L314.43,1.76h8.95l14.3,39.09h-7.42l-3.47-9.5H310.32Zm13.06-29.2-1-3.31-1,3.36-5.2,13.51h12Z"/><path class="cls-1" d="M371.52,23.28c-1.93,2.62-5.29,3.81-10,3.91-1,0-12.67-.05-12.67-.05V40.85h-7.17V1.76h19.89c5,0,8.06,1.28,9.75,3.61,1.38,1.83,2.22,4.85,2.22,9.1S373,21.4,371.52,23.28Zm-5.84-13c-.79-1.49-2.57-2.23-5.54-2.23H348.86V20.91H360c3.27,0,4.85-.89,5.64-2.23a8.67,8.67,0,0,0,.65-4.11A9.62,9.62,0,0,0,365.68,10.32Z"/></svg>