<svg width="450" height="122" viewBox="0 0 450 122" fill="none" xmlns="http://www.w3.org/2000/svg">
<path d="M51.0454 87.7346C50.9714 87.4367 50.8973 87.0643 50.8232 86.6919C51.2677 86.6174 51.7863 86.394 52.1567 86.4685C56.1574 87.6601 60.084 88.9262 64.0105 90.1179C68.1594 91.384 97.2753 100.098 101.424 101.364C101.869 101.513 102.313 101.587 102.684 101.811C102.906 101.96 103.128 102.332 103.054 102.556C102.98 102.779 102.609 103.003 102.313 102.928C101.869 102.928 101.424 102.779 101.054 102.63C95.2749 100.843 64.5291 91.6074 58.7504 89.82C56.8983 89.2241 55.0461 88.7028 53.1939 88.1815C52.8235 88.107 52.4531 88.0325 52.0826 87.958C52.0826 88.0325 52.0086 88.107 52.0086 88.1815C52.6753 88.5538 53.3421 89.0007 54.0089 89.3731C56.8242 90.9371 59.6394 92.5012 62.5288 94.0652C65.27 95.5547 68.0112 97.0443 70.8265 98.5339C72.0859 99.2041 93.7191 110.972 94.9786 111.716C95.4231 111.94 96.0899 112.312 95.7195 112.982C95.349 113.578 94.6823 113.28 94.2377 112.982C91.867 111.642 69.1966 99.2786 66.8258 98.0125C64.1587 96.523 61.4175 95.0334 58.7504 93.5439C56.2315 92.2033 53.6385 90.8627 51.1936 89.5221C50.8232 89.2986 50.6009 88.8518 50.2305 88.4794C50.4527 88.2559 50.7491 88.0325 51.0454 87.7346ZM64.0105 0.521343C63.6401 1.93642 53.7866 39.9945 53.4903 41.1861C52.6012 44.6866 51.7122 48.187 50.8973 51.6874C50.0823 54.89 49.3415 58.167 48.5265 61.3695C47.6375 65.0934 46.6743 68.8918 45.7112 72.6156C45.4149 73.8073 45.0444 74.9989 44.8222 76.1906C44.7481 76.4885 45.1185 76.9353 45.2667 77.3077C45.5631 77.0843 46.0076 76.8609 46.0817 76.563C46.378 75.6692 46.6743 74.7755 46.8966 73.8818C47.7116 70.4558 48.5265 67.0298 49.3415 63.6039C50.1564 60.1034 51.1195 56.603 51.9345 53.1025C52.8976 49.2297 53.8607 45.3568 54.8238 41.5585C55.1202 40.3669 64.9737 2.30881 65.1218 1.04269C65.1959 0.670298 64.8255 0.29791 64.6773 0C64.4551 0.223433 64.1587 0.446866 64.0105 0.521343ZM39.8584 92.2777C39.7843 91.9053 39.6362 91.533 39.5621 91.0861C39.1916 91.235 38.7471 91.3095 38.5249 91.6074C38.0063 92.2777 37.5617 93.097 37.1172 93.8418C35.6355 96.225 34.1538 98.6083 32.672 100.992C30.894 103.896 29.19 106.801 27.4119 109.705C25.1893 113.355 22.9667 117.004 20.8182 120.728C20.596 121.101 20.7442 121.547 20.6701 121.994C21.0405 121.845 21.485 121.622 21.8554 121.473C21.9295 121.473 21.9295 121.324 22.0036 121.25C23.1149 119.388 24.2262 117.6 25.3375 115.738C26.8192 113.355 28.2269 110.972 29.7086 108.588C31.1903 106.205 32.672 103.822 34.0797 101.438C35.3391 99.3531 36.6727 97.2677 37.9322 95.1824C38.5249 94.2886 39.1175 93.3204 39.8584 92.2777ZM51.2677 81.2551C51.8604 80.8827 52.4531 80.5103 53.1198 80.1379C57.8614 77.3822 62.5288 74.701 67.2703 71.9454C72.5305 68.9662 97.053 55.0389 102.313 52.0598C102.609 51.9109 102.832 51.6874 103.054 51.464C103.202 51.3151 103.202 50.9427 103.128 50.7937C103.054 50.6448 102.758 50.4958 102.535 50.4958C102.165 50.5703 101.795 50.7192 101.424 50.8682C98.2384 52.6557 75.7162 65.3913 72.5304 67.2533C68.3075 69.711 64.1587 72.3177 59.9358 74.7755C56.9723 76.4885 53.9348 77.978 51.0454 79.6165C50.6009 79.84 50.1564 80.3613 50.1564 80.8082C50.0823 81.4785 50.8232 81.1061 51.2677 81.2551C51.2677 81.1806 51.2677 81.1806 51.2677 81.2551ZM35.3391 85.7237C35.191 85.7237 34.8946 85.7237 34.6724 85.7237C34.0797 85.8727 33.487 86.0216 32.8943 86.1706C23.189 88.2559 13.5578 90.3413 3.85249 92.5012C2.74119 92.7246 1.6299 92.948 0.59269 93.2459C0.370431 93.3204 0.222259 93.6928 0 93.8418C0.296345 94.0652 0.518604 94.3631 0.814949 94.4376C1.18538 94.5121 1.55581 94.4376 1.85216 94.3631C12.8169 91.9798 23.7817 89.5965 34.7465 87.2133C35.0428 87.1388 35.4132 86.9898 35.6355 86.8409C36.1541 86.4685 36.08 86.0216 35.3391 85.7237ZM37.4136 89.671C37.3395 89.4476 37.4136 89.0752 37.1913 88.9262C37.0431 88.7773 36.6727 88.7773 36.5245 88.8518C35.7096 89.2986 34.9687 89.82 34.1538 90.4158C26.4488 95.8527 18.7438 101.364 11.0389 106.801C9.26078 108.067 7.48271 109.408 5.77873 110.823C5.55647 110.972 5.55647 111.418 5.4083 111.716C5.77873 111.716 6.22325 111.865 6.44551 111.716C7.18637 111.27 7.77906 110.748 8.44583 110.227C17.7807 103.673 27.1156 97.0443 36.4504 90.4903C36.7468 90.2668 37.0431 90.0434 37.4136 89.671ZM50.2305 89.3731C49.9341 89.4476 49.6378 89.5965 49.2674 89.671C49.3415 90.0434 49.4896 90.3413 49.5637 90.7137C49.6378 90.8627 49.786 90.9371 49.8601 91.0861C51.564 92.5012 53.268 93.8418 54.972 95.2568C60.3803 99.8745 65.7886 104.418 71.1969 109.035C72.3823 110.078 73.6417 110.972 74.8271 111.94C75.0494 112.089 75.4198 112.014 75.7162 112.014C75.7162 111.716 75.7162 111.344 75.6421 111.121C75.568 110.972 75.4198 110.823 75.1976 110.674C73.2713 109.035 71.4192 107.471 69.4929 105.833C66.2331 103.151 62.9733 100.47 59.7876 97.7146C56.9723 95.3313 54.2311 92.948 51.49 90.4903C51.1936 90.1179 50.7491 89.82 50.2305 89.3731ZM42.7478 76.7119C42.6737 75.9671 42.6737 75.2224 42.5255 74.5521C41.4883 68.4449 40.4511 62.3377 39.4139 56.2306C39.0435 53.8473 33.1166 15.7892 32.672 13.406C32.598 12.8101 32.4498 11.9164 31.7089 12.0654C30.894 12.2143 31.2644 13.0336 31.3385 13.6294C32.0794 18.1725 38.3026 58.316 39.0435 62.8591C39.7102 67.1043 40.377 71.424 41.0438 75.6692C41.1179 76.1161 41.2661 76.4885 41.4883 76.8609C41.5624 77.0098 41.9328 77.1588 42.1551 77.1588C42.3773 77.1588 42.5255 76.9353 42.7478 76.7119ZM46.8225 75.8182C46.7484 76.2651 46.5262 76.6374 46.4521 77.0843C46.378 77.3077 46.5262 77.5312 46.6743 77.6801C46.7484 77.7546 47.0448 77.6801 47.267 77.6056C47.4893 77.4567 47.7116 77.3077 47.7856 77.0843C48.6006 75.5203 49.3414 73.9562 50.0823 72.3922C51.7122 68.9662 53.3421 65.5403 54.972 62.1143C56.3796 59.1352 70.7524 28.0036 72.16 25.0245C72.3082 24.7266 72.4564 24.3542 72.5304 23.9818C72.5304 23.7584 72.3823 23.386 72.16 23.3115C72.0119 23.237 71.5673 23.386 71.4192 23.5349C71.1228 23.9073 70.8265 24.3542 70.6783 24.801C68.7521 28.8228 53.9348 60.9971 51.9345 65.0934C50.2305 68.6683 48.5265 72.2433 46.8225 75.8182ZM43.4886 92.6501C43.4886 93.0225 43.4146 93.3204 43.4146 93.6928C43.4886 95.7782 43.6368 97.938 43.785 100.023C44.1554 105.162 44.4518 110.301 44.8222 115.44C44.9704 117.228 45.0445 119.09 45.1926 120.877C45.2667 121.398 45.2667 122.069 46.0076 121.994C46.6743 121.92 46.6003 121.324 46.6003 120.803C46.4521 118.717 46.378 116.706 46.2298 114.621C45.7853 107.769 45.4149 100.992 44.9704 94.1397C44.9704 93.6183 44.8222 93.097 44.674 92.6501C44.5999 92.5012 44.3036 92.2777 44.0813 92.2777C43.785 92.2777 43.6368 92.5012 43.4886 92.6501ZM39.2657 119.76C39.3398 119.164 39.488 118.792 39.488 118.345C39.7102 116.632 39.9325 114.919 40.1548 113.206C40.5993 109.854 41.1179 106.503 41.5624 103.226C42.0069 100.247 42.4514 97.3422 42.8219 94.3631C42.8959 93.8418 42.97 93.3204 42.8959 92.7991C42.8959 92.5756 42.6737 92.2033 42.4514 92.2033C42.3033 92.1288 41.9328 92.3522 41.7847 92.5756C41.6365 92.7246 41.5624 92.948 41.5624 93.1715C41.4142 94.2886 41.266 95.4803 41.1179 96.5974C40.7474 99.3531 40.3029 102.183 39.9325 104.939C39.5621 107.844 39.1175 110.674 38.7471 113.578C38.5249 115.44 38.2285 117.377 38.0803 119.239C38.0803 119.537 38.3767 119.909 38.5249 120.281C38.7471 120.132 39.0435 119.909 39.2657 119.76ZM6.81594 85.5748C7.03819 85.5748 7.18637 85.6492 7.40863 85.6492C9.26078 85.6492 11.0389 85.5748 12.891 85.5748C19.1883 85.5003 25.4857 85.5003 31.7089 85.5003C32.8202 85.5003 33.9315 85.5003 35.0428 85.4258C35.3391 85.4258 35.5614 84.9789 35.7837 84.7555C35.4873 84.5321 35.191 84.2342 34.8205 84.1597C34.3019 84.0852 33.7093 84.1597 33.1166 84.1597C24.9671 84.2342 16.7435 84.2341 8.59401 84.3086C8.00132 84.3086 7.40863 84.4576 6.81594 84.6065C6.66776 84.681 6.44551 84.9789 6.44551 85.2024C6.44551 85.2768 6.74185 85.5003 6.81594 85.5748ZM51.2677 81.2551C51.1936 81.3295 51.0454 81.404 51.0454 81.553C50.8973 81.8509 50.8232 82.1488 50.675 82.5212C50.9714 82.5956 51.3418 82.8191 51.6381 82.7446C52.2308 82.6701 52.7494 82.3722 53.3421 82.2233C61.2693 79.691 84.6806 71.7219 92.6078 69.1897C92.9783 69.0407 93.3487 68.9662 93.645 68.7428C93.8673 68.5939 93.9414 68.2215 94.0896 67.9236C93.7932 67.7746 93.5709 67.5512 93.2746 67.5512C92.9783 67.4767 92.6819 67.6256 92.4597 67.7746C91.6447 68.0725 75.2716 73.8073 74.4567 74.0307C68.2334 76.0416 61.9361 78.127 55.6388 80.1379C54.2311 80.4358 52.7494 80.8082 51.2677 81.2551ZM78.6055 39.6221C78.5314 39.3242 78.5314 38.8028 78.3833 38.7283C78.0869 38.6539 77.6424 38.7283 77.4202 38.8773C76.8275 39.5476 76.3088 40.2924 75.7162 41.0371C74.1603 43.1225 59.4172 62.3377 57.8614 64.4231C55.4165 67.6256 53.0458 70.7537 50.6009 73.9562C49.6378 75.1479 48.7488 76.414 47.8597 77.6801C47.7116 77.9036 47.8597 78.2759 47.7856 78.5739C48.082 78.5739 48.4524 78.6483 48.7488 78.4994C48.971 78.4249 49.1933 78.2015 49.3415 77.978C49.7119 77.5312 50.0082 77.0098 50.3046 76.563C51.6381 74.7755 53.0458 72.9136 54.3793 71.1261C57.1946 67.4767 73.1972 46.5485 76.0125 42.8991C76.9015 41.9309 77.7165 40.8137 78.6055 39.6221ZM14.595 64.1997C14.2986 64.2742 14.0023 64.4231 13.706 64.4976C13.8541 64.7955 13.9282 65.1679 14.1505 65.4658C14.2986 65.6892 14.595 65.8382 14.8913 66.0616C16.2249 66.9554 17.5584 67.7746 18.892 68.6683C21.1146 70.1579 23.3372 71.7219 25.5598 73.2859C28.1528 75.0734 30.8199 76.8609 33.4129 78.6483C34.376 79.3186 35.4132 79.9144 36.4504 80.5103C36.5986 80.5847 37.0431 80.5847 37.1172 80.4358C37.2654 80.2124 37.1913 79.9145 37.1172 79.691C37.1172 79.5421 36.895 79.3931 36.7468 79.3186C35.2651 78.2759 33.7833 77.2333 32.2275 76.1906C30.0049 74.6265 27.7824 73.137 25.4857 71.6474C22.8186 69.86 20.1515 67.998 17.4844 66.2106C16.5212 65.5403 15.6322 64.9445 14.595 64.1997ZM39.5621 77.0098C38.9694 76.1906 38.3026 75.4458 37.784 74.5521C34.8946 70.1579 32.0794 65.7637 29.2641 61.3695C28.0046 59.5076 14.2246 36.8664 13.1133 35.0045C12.8169 34.4831 12.3724 33.8873 11.9279 33.4404C11.7797 33.2915 11.4093 33.2915 11.187 33.366C11.0389 33.4404 10.9648 33.8128 11.0389 34.0363C11.1129 34.4086 11.3352 34.8555 11.5575 35.1534C14.0023 39.1752 29.2641 63.8273 31.783 67.7746C33.8574 71.0516 36.0059 74.2542 38.1544 77.4567C38.3767 77.8291 38.8953 78.0525 39.3398 78.3504C39.3398 77.9035 39.4139 77.4567 39.5621 77.0098ZM23.5594 75.5947C22.7445 75.2224 21.9295 74.9245 21.1146 74.5521C18.077 73.2859 15.0395 72.0198 12.002 70.7537C11.6315 70.6048 11.2611 70.5303 10.8907 70.5303C10.6684 70.5303 10.3721 70.7537 10.298 70.9027C10.2239 71.0516 10.4462 71.424 10.5943 71.573C10.8166 71.7964 11.187 71.9454 11.4834 72.0198C19.0402 75.1479 26.6711 78.3504 34.2279 81.4785C34.6724 81.6274 35.0428 81.8509 35.4873 81.9998C35.7837 82.0743 36.08 81.8509 36.3764 81.7764C36.2282 81.4785 36.1541 81.1061 36.0059 80.8082C35.9318 80.6592 35.7096 80.5847 35.5614 80.5103C31.4867 78.8718 27.5601 77.2333 23.5594 75.5947ZM51.4159 84.4576C52.2308 84.3831 52.9717 84.3831 53.6385 84.3086C61.4916 83.4894 108.61 76.7864 116.464 75.9671C117.13 75.8927 117.797 75.8182 118.464 75.6692C118.686 75.5948 118.908 75.2224 118.983 74.9989C118.983 74.85 118.612 74.6265 118.39 74.4776C118.242 74.4031 117.945 74.4031 117.797 74.4031C116.093 74.5521 114.389 74.7755 112.685 74.9245C106.906 75.5947 61.862 82.0743 56.0833 82.7446C54.6757 82.8936 53.268 82.968 51.9345 83.117C51.6381 83.117 51.3418 83.4149 51.1936 83.7128C51.0454 83.7873 51.3418 84.1597 51.4159 84.4576ZM37.4136 79.3186C37.6358 79.3186 38.0063 79.3186 38.0803 79.2442C38.2285 79.0207 38.3026 78.7228 38.2285 78.4249C38.1544 78.127 37.9322 77.9036 37.7099 77.6801C37.2654 77.1588 36.7468 76.7864 36.2282 76.2651C32.0794 72.0198 27.9305 67.7001 23.7817 63.4549C23.0408 62.7101 22.3741 61.9654 21.6332 61.2951C21.4109 61.0716 20.8182 60.9971 20.596 61.1461C20.2255 61.444 20.3737 61.8909 20.7442 62.2633C21.0405 62.5612 21.3368 62.7846 21.5591 63.0825C26.4488 68.2215 31.3385 73.2859 36.2282 78.4249C36.5986 78.6483 36.969 78.9462 37.4136 79.3186ZM22.3741 106.28C22.4481 106.577 22.4481 106.95 22.5963 107.099C22.7445 107.248 23.1149 107.173 23.3372 107.099C23.5594 107.024 23.7817 106.801 23.9299 106.652C26.3747 104.045 28.8936 101.438 31.3385 98.8318C33.6352 96.374 35.8578 93.9907 38.1544 91.533C38.4508 91.1606 38.8212 90.7137 38.3026 90.3413C37.784 89.8944 37.4136 90.1924 37.0431 90.5647C36.6727 90.9371 36.3764 91.384 36.08 91.7564C32.1534 95.9271 28.301 100.023 24.3744 104.194C23.7076 104.864 23.0408 105.535 22.3741 106.28ZM36.969 100.992H36.895C36.0059 103.598 35.0428 106.131 34.1538 108.737C34.0056 109.184 33.8574 109.557 33.8574 110.003C33.8574 110.227 34.0797 110.525 34.1538 110.823C34.4501 110.674 34.7465 110.674 34.8946 110.45C35.1169 110.152 35.3391 109.705 35.4873 109.333C35.9318 107.993 36.3764 106.652 36.8209 105.311C38.3026 101.29 39.8584 97.3422 41.3401 93.3204C41.4142 93.097 41.4883 92.7991 41.4142 92.5756C41.3401 92.2777 41.1179 91.9053 40.8956 91.8309C40.7474 91.7564 40.377 92.0543 40.1548 92.2777C40.0066 92.3522 40.0066 92.5756 39.9325 92.7991C38.8953 95.4803 37.9322 98.2359 36.969 100.992ZM50.6009 112.387C50.9714 112.089 51.2677 111.94 51.3418 111.791C51.4159 111.493 51.4159 111.046 51.2677 110.748C49.7119 104.864 48.082 98.9807 46.5262 93.097C46.4521 92.7991 46.3039 92.5012 46.0817 92.2777C45.9335 92.1288 45.5631 92.0543 45.4149 92.1288C45.2667 92.2032 45.0444 92.5012 45.0444 92.7246C45.0444 93.097 45.1185 93.5439 45.2667 93.9162C46.1557 97.1188 47.0448 100.247 47.9338 103.449C48.6006 105.982 49.2674 108.514 49.9341 111.046C50.0823 111.344 50.3046 111.716 50.6009 112.387ZM16.299 95.9271C16.2249 96.523 16.4472 96.8209 16.8917 96.8209C17.188 96.8209 17.4844 96.7464 17.7066 96.5974C19.1883 95.9271 20.7442 95.3313 22.2259 94.661C26.6711 92.7991 31.0421 90.8627 35.4873 89.0007C35.7837 88.8518 36.08 88.7773 36.3023 88.5538C36.4504 88.4049 36.5986 87.958 36.5245 87.8091C36.4504 87.6601 36.08 87.4367 35.8578 87.5112C35.4873 87.5856 35.0428 87.7346 34.6724 87.8836C30.9681 89.5221 27.3378 91.1606 23.6335 92.7246C21.6332 93.6183 19.5588 94.3631 17.4844 95.2568C17.0398 95.4058 16.6694 95.7037 16.299 95.9271ZM48.971 79.0207C49.0451 79.3186 49.0451 79.6165 49.1933 79.7655C49.3415 79.9145 49.7119 79.9889 49.9341 79.9145C50.2305 79.84 50.4527 79.691 50.675 79.4676C54.972 75.6692 68.0853 64.3486 72.3823 60.5503C72.6786 60.2524 73.1231 60.0289 73.3454 59.6565C73.4936 59.3586 73.4936 58.9862 73.4936 58.6139C73.1972 58.6139 72.8268 58.5394 72.6045 58.6883C72.2341 58.8373 71.9378 59.1352 71.6414 59.4331C67.3444 63.157 54.3052 74.4031 50.0082 78.127C49.5637 78.2759 49.2674 78.6483 48.971 79.0207ZM39.5621 77.0098C39.6362 77.0843 39.7843 77.2333 39.8584 77.3077C40.1548 77.4567 40.5252 77.6801 40.7474 77.5312C40.9697 77.4567 41.0438 77.0098 41.0438 76.7119C41.0438 76.3395 40.8956 75.9671 40.7474 75.5947C38.8212 70.6047 29.9309 47.8146 27.9305 42.8246C27.7823 42.4522 27.5601 42.1543 27.2637 41.8564C27.1156 41.7074 26.8192 41.7074 26.597 41.7819C26.4488 41.8564 26.3747 42.1543 26.3006 42.3777C26.3006 42.6012 26.3747 42.8246 26.4488 43.048C27.7824 46.623 36.2282 67.998 37.5617 71.573C38.3026 73.3604 38.8953 75.1479 39.5621 77.0098ZM17.3362 80.2124C18.7438 80.5103 19.9292 80.7337 21.1146 80.9571C24.3003 81.553 27.5601 82.2233 30.7458 82.8936C32.1534 83.1915 33.487 83.4894 34.8946 83.7128C35.3391 83.7873 35.8578 83.8618 35.9318 83.2659C36.08 82.6701 35.4873 82.6701 35.191 82.5956C32.598 81.9998 30.079 81.404 27.486 80.8827C24.893 80.2868 22.2259 79.7655 19.6329 79.2442C18.9661 79.0952 18.2993 79.0207 17.6325 79.0207C17.3362 79.0207 17.0398 79.3186 16.7435 79.4676C16.9658 79.691 17.188 79.9889 17.3362 80.2124ZM48.2302 92.2033C48.0079 91.9798 47.8597 91.7564 47.5634 91.6074C47.3411 91.4585 46.9707 91.533 46.6743 91.4585C46.6743 91.7564 46.5262 92.0543 46.6003 92.2777C46.7484 92.7991 46.9707 93.3204 47.267 93.7673C48.6006 96.374 49.9341 98.9807 51.2677 101.587C52.2308 103.524 53.1199 105.46 54.083 107.397C54.3052 107.769 54.5275 108.29 55.0461 108.067C55.6388 107.844 55.4906 107.322 55.2684 106.875C55.0461 106.428 54.7497 105.982 54.5275 105.46C53.4162 103.151 52.2308 100.843 51.1195 98.5339C50.2305 96.374 49.2674 94.2886 48.2302 92.2033ZM44.3777 76.6374C44.4518 75.8182 44.5258 75.1479 44.5258 74.4776C44.674 70.8282 46.9707 25.7692 47.1189 22.1198C47.1189 21.0772 47.193 20.0345 47.1189 18.9918C47.1189 18.6939 46.7484 18.4704 46.5262 18.1725C46.3039 18.396 46.0076 18.6194 46.0076 18.9173C45.8594 19.5131 45.8594 20.1089 45.8594 20.7048C45.7112 24.5776 43.3405 69.711 43.1182 73.5839C43.0441 74.5521 43.0441 75.5203 43.1182 76.4885C43.1182 76.7119 43.4886 77.0843 43.7109 77.1588C43.9332 77.1588 44.1554 76.7864 44.3777 76.6374ZM51.7122 86.0961C52.2308 86.1706 52.5272 86.245 52.8235 86.245C53.7125 86.3195 54.6016 86.3195 55.5647 86.394C59.0468 86.6919 83.273 88.4794 86.755 88.7773C87.2736 88.8518 88.0145 88.9262 88.0886 88.1815C88.1627 87.4367 87.4218 87.4367 86.9032 87.4367C83.3471 87.1388 59.0468 85.3513 55.4906 85.0534C54.3793 84.9789 53.268 84.83 52.1567 84.83C51.8604 84.83 51.564 85.2024 51.2677 85.4258C51.3418 85.7237 51.564 85.9471 51.7122 86.0961ZM48.2302 92.2033C48.3783 92.2777 48.6006 92.4267 48.7488 92.5756C50.1564 94.2886 51.564 96.0016 52.9717 97.7891C54.0089 98.9807 54.972 100.247 56.0092 101.438C56.1574 101.587 56.5278 101.736 56.6019 101.662C56.7501 101.513 56.8983 101.215 56.8983 100.992C56.7501 100.545 56.6019 100.172 56.3056 99.8C54.083 96.8953 51.8604 93.9907 49.5637 91.0861C49.2674 90.7137 48.8228 90.2668 48.2302 90.6392C47.7116 91.0116 47.9338 91.533 48.1561 91.9798C48.2302 92.0543 48.2302 92.1288 48.2302 92.2033ZM405.178 61.6674C403.326 61.6674 401.473 61.6674 399.547 61.6674C397.473 61.6674 397.473 61.6674 397.473 63.7528C397.473 74.1797 397.473 84.5321 397.473 94.9589V96.7464C397.325 96.8209 397.176 96.8209 397.028 96.8953C395.324 93.9907 393.62 91.0861 391.916 88.1815C387.027 79.84 382.063 71.424 377.173 63.008C376.655 62.0398 375.988 61.6674 374.877 61.6674C372.432 61.7419 369.913 61.6674 367.468 61.6674C365.393 61.6674 365.393 61.6674 365.393 63.8273C365.393 77.6801 365.393 91.533 365.393 105.311C365.393 107.248 365.393 109.184 365.393 111.121C365.393 112.163 365.764 112.536 366.801 112.461C368.579 112.387 370.431 112.461 372.209 112.461C374.358 112.461 374.358 112.461 374.358 110.301C374.358 99.5765 374.358 88.7773 374.358 78.0525C374.358 77.4567 374.21 76.7864 374.58 76.1161C374.802 76.4885 374.951 76.6374 375.099 76.8609C381.841 88.2559 388.582 99.5765 395.25 110.972C395.917 112.163 396.658 112.536 397.991 112.461C400.066 112.387 402.066 112.461 404.141 112.461C406.289 112.461 406.289 112.461 406.289 110.301C406.289 94.7355 406.289 79.2442 406.289 63.6783C406.289 63.3804 406.289 63.0825 406.289 62.7846C406.437 62.0398 405.993 61.6674 405.178 61.6674ZM342.279 61.8164C350.947 63.7528 356.059 69.4131 357.466 78.3504C357.911 81.1806 357.985 84.0107 358.059 86.543C357.985 91.0861 357.689 95.4058 356.355 99.5021C354.132 106.205 349.835 110.525 342.945 112.163C336.944 113.578 330.869 113.578 324.942 111.865C318.793 110.152 314.644 106.205 312.792 100.098C310.125 91.6074 310.051 82.968 312.644 74.4031C314.793 67.4022 319.83 63.4549 326.795 61.8164C331.906 60.6248 337.092 60.6992 342.279 61.8164ZM347.613 96.0761C349.169 89.9689 349.094 83.8618 347.539 77.8291C346.501 73.8073 343.983 71.2006 340.056 69.9345C336.87 68.8918 333.536 68.8918 330.277 69.5621C325.535 70.5303 322.572 73.5094 321.386 78.2759C320.645 81.1806 320.275 84.0852 320.275 87.0643C320.275 90.4903 320.645 93.8418 321.757 97.0443C323.312 101.513 326.35 104.12 331.017 104.864C333.314 105.237 335.537 105.237 337.833 104.864C342.871 103.896 346.279 101.141 347.613 96.0761ZM169.732 61.6674C167.879 61.7419 166.027 61.6674 164.101 61.6674C162.249 61.6674 162.175 61.6674 162.175 63.5294C162.175 69.3386 162.101 75.1479 162.175 80.9571C162.175 82.2977 161.878 82.7446 160.471 82.6701C153.951 82.5956 147.432 82.6701 140.986 82.6701C139.208 82.6701 139.134 82.6701 139.134 80.7337C139.134 74.9245 139.134 69.1152 139.134 63.306C139.134 62.0398 138.764 61.593 137.504 61.6674C135.652 61.7419 133.8 61.6674 131.874 61.6674C129.799 61.6674 129.799 61.6674 129.799 63.7528C129.799 76.1161 129.799 88.4049 129.799 100.768C129.799 104.12 129.799 107.546 129.799 110.897C129.799 112.014 130.095 112.536 131.355 112.461C133.355 112.387 135.356 112.461 137.282 112.461C139.06 112.461 139.06 112.461 139.06 110.674C139.06 104.79 139.134 98.9062 139.06 93.097C139.06 91.7564 139.43 91.384 140.764 91.384C147.283 91.4585 153.803 91.384 160.249 91.384C162.027 91.384 162.027 91.384 162.027 93.1715C162.027 99.1297 162.027 105.013 162.027 110.972C162.027 112.163 162.323 112.61 163.508 112.536C165.435 112.461 167.361 112.536 169.287 112.536C171.139 112.536 171.213 112.536 171.213 110.674C171.213 102.854 171.213 95.1079 171.213 87.2877C171.213 79.3931 171.213 71.424 171.213 63.5294C171.436 62.1143 171.139 61.593 169.732 61.6674ZM225 109.631C225.222 110.152 225.296 110.674 225.519 111.195C225.963 112.238 225.593 112.536 224.555 112.536C222.333 112.461 220.11 112.461 217.888 112.536C216.702 112.61 216.11 112.163 215.739 111.121C214.702 107.993 213.443 104.864 212.405 101.736C212.035 100.545 211.442 100.172 210.183 100.172C204.182 100.247 198.181 100.247 192.106 100.172C190.92 100.172 190.402 100.545 190.031 101.662C188.92 104.79 187.661 107.844 186.549 110.972C186.179 112.089 185.66 112.61 184.401 112.536C182.326 112.387 180.178 112.536 178.103 112.461C176.473 112.461 176.399 112.387 176.992 110.823C179.141 105.237 181.289 99.651 183.438 94.0652C187.29 84.0107 191.143 73.8818 195.069 63.8273C196.032 61.2951 195.736 61.7419 198.107 61.6674C199.292 61.6674 200.477 61.6674 201.737 61.6674C203.145 61.6674 204.626 61.7419 206.034 61.6674C207.071 61.593 207.664 61.9654 208.034 63.008C209.516 67.2533 211.146 71.4985 212.702 75.7437C216.776 87.0643 220.925 98.3849 225 109.631ZM208.923 92.0543C206.627 84.9789 203.811 78.2015 201.589 71.2006C199.292 78.2759 196.18 84.9789 193.81 92.0543H208.923ZM262.488 61.7419C255.968 61.7419 249.448 61.7419 243.003 61.7419H237.965C233.075 61.7419 228.186 61.8164 223.37 61.7419C222.037 61.7419 221.592 62.1888 221.666 63.5294C221.74 65.1679 221.814 66.8064 221.666 68.4449C221.592 69.86 222.111 70.1579 223.444 70.1579C227.815 70.0834 232.26 70.1579 236.632 70.0834C237.965 70.0834 238.336 70.4558 238.336 71.7964C238.261 77.6056 238.336 83.4149 238.336 89.2242C238.336 96.374 238.336 103.449 238.336 110.599C238.336 112.61 238.335 112.61 240.262 112.61C242.04 112.61 243.892 112.61 245.67 112.61C247.819 112.61 247.819 112.61 247.819 110.45C247.819 97.5656 247.819 84.681 247.819 71.8709C247.819 70.5303 248.189 70.1579 249.523 70.1579C253.894 70.2324 258.339 70.1579 262.71 70.1579C264.414 70.1579 264.414 70.1579 264.488 68.3704C264.488 66.8064 264.488 65.2424 264.488 63.6783C264.266 61.7419 264.266 61.7419 262.488 61.7419ZM305.458 61.7419C299.012 61.7419 292.567 61.7419 286.121 61.7419C279.527 61.7419 273.008 61.7419 266.414 61.7419C265.081 61.7419 264.562 62.1143 264.636 63.4549C264.71 65.0934 264.71 66.7319 264.636 68.3704C264.562 69.7855 265.081 70.0834 266.414 70.0834C270.785 70.0089 275.082 70.0834 279.453 70.0834C281.232 70.0834 281.231 70.0834 281.231 71.8709C281.231 80.4358 281.231 89.0752 281.231 97.6401C281.231 102.034 281.306 106.503 281.231 110.897C281.231 112.312 281.676 112.685 283.01 112.61C284.862 112.536 286.714 112.61 288.64 112.61C290.789 112.61 290.789 112.61 290.789 110.45C290.789 97.5656 290.789 84.681 290.789 71.7964C290.789 70.4558 291.085 70.0089 292.493 70.0089C296.79 70.0834 301.013 70.0089 305.31 70.0089C307.384 70.0089 307.384 70.0089 307.458 67.998C307.458 66.583 307.458 65.0934 307.458 63.6783C307.31 61.7419 307.31 61.7419 305.458 61.7419ZM135.133 11.2461C133.503 11.2461 131.874 11.3951 129.947 11.0972C130.762 10.2034 131.355 10.3524 131.874 10.3524C138.838 10.3524 145.876 10.3524 152.84 10.3524C156.692 10.3524 160.545 11.0227 164.027 12.8846C167.139 14.5231 168.991 17.0554 168.917 20.7048C168.843 24.5031 166.842 26.9609 163.582 28.6739C161.73 29.5676 159.804 30.0889 157.804 30.9082C159.211 31.2806 160.619 31.5785 162.027 31.9509C164.397 32.6957 166.62 33.8128 168.324 35.6748C172.176 39.6221 171.954 45.3569 167.731 49.0063C164.768 51.613 161.138 52.6557 157.359 53.326C155.433 53.6239 153.507 53.7728 151.581 53.7728C145.061 53.7728 138.541 53.7728 132.096 53.7728C131.503 53.7728 130.762 53.9963 130.244 53.4749C130.318 52.8046 130.836 52.9536 131.207 52.9536C132.763 52.9536 134.318 52.9536 135.874 52.9536C137.875 52.8791 138.689 52.1343 138.986 50.1979C139.06 49.5276 139.06 48.8573 139.06 48.187C139.06 37.5367 139.06 26.8864 139.06 16.2361C139.06 15.8637 139.06 15.4913 139.06 15.1189C138.986 12.1398 138.097 11.3206 135.133 11.2461ZM163.805 42.9736C164.323 37.9836 161.064 33.5149 155.729 31.9509C152.766 31.1316 149.728 31.4295 146.765 31.3551C145.654 31.3551 145.728 32.0998 145.728 32.8446C145.728 35.7492 145.728 38.6539 145.728 41.5585C145.728 44.5376 145.728 47.5167 145.728 50.4213C145.728 52.3577 146.246 52.7301 148.098 52.7301C149.877 52.7301 151.58 52.8046 153.359 52.7301C159.211 52.5067 163.212 48.7828 163.805 42.9736ZM145.728 14.0018C145.654 16.4595 145.728 18.9173 145.728 21.4495C145.728 23.9818 145.728 26.514 145.728 29.0463C145.728 29.7166 145.654 30.4613 146.691 30.3869C149.802 30.3124 152.914 30.6848 156.026 29.6421C160.174 28.227 162.545 24.1307 161.878 19.4387C161.212 14.5976 158.1 11.693 153.507 11.544C151.729 11.4695 150.025 11.544 148.247 11.544C146.172 11.6185 145.728 11.9909 145.728 14.0018ZM183.141 49.9745C183.364 49.0063 183.363 48.038 183.363 47.0698C183.363 36.7919 183.363 26.514 183.363 16.2361C183.363 16.0872 183.363 15.8637 183.363 15.7148C183.289 12.2143 182.4 11.3206 178.918 11.2461C177.437 11.2461 175.955 11.4695 174.473 11.0972C174.473 10.2779 175.066 10.4269 175.51 10.4269C183.364 10.4269 191.291 10.3524 199.144 10.5013C202.774 10.5758 206.256 11.544 209.368 13.6294C214.998 17.5022 214.998 24.5776 209.368 28.376C207.071 29.94 204.552 30.8337 201.959 31.504C201.366 31.653 200.848 31.8019 200.255 31.9509C200.7 32.6212 201.292 32.6957 201.811 32.9191C207.812 35.6003 211.072 40.3669 212.035 46.8464C212.183 47.9636 212.331 49.0807 212.553 50.2724C212.776 51.2406 213.368 51.9109 214.406 52.0598C215.443 52.2088 216.11 51.5385 216.554 50.7192C217.74 48.4849 217.962 45.9527 218.036 43.4949C218.11 42.3033 218.036 41.1116 218.036 39.92C218.777 39.771 218.851 40.1434 218.851 40.5158C218.925 43.4949 218.925 46.474 218.11 49.3042C217.295 52.2833 215.665 53.7728 213.294 53.9963C210.183 54.2942 207.516 52.9536 206.182 50.3468C205.219 48.4104 204.849 46.3995 204.7 44.2397C204.552 42.2288 204.33 40.2924 203.663 38.356C202.552 35.0789 200.107 33.217 196.847 32.6212C194.921 32.2488 192.995 32.2488 191.068 32.2488C190.105 32.2488 189.883 32.6957 189.883 33.5894C189.883 38.5794 189.883 43.4949 189.957 48.4849C190.031 51.8364 190.994 52.7301 194.328 52.8046C195.44 52.8046 196.477 52.8046 197.588 52.8046C198.033 52.8046 198.551 52.6557 198.848 53.177C197.662 53.8473 176.103 53.9218 174.473 53.2515C174.695 52.5812 175.214 52.8046 175.659 52.7301C177.066 52.6557 178.548 52.8046 179.956 52.6557C182.03 52.6557 182.697 51.9854 183.141 49.9745ZM189.957 21.8964C189.957 24.5776 190.031 27.1843 189.957 29.8655C189.883 31.2061 190.402 31.504 191.587 31.4295C192.921 31.3551 194.254 31.4295 195.588 31.3551C198.255 31.2061 200.848 30.7592 202.996 28.9718C206.034 26.4395 207.145 21.2261 205.589 17.1298C204.552 14.3742 202.626 12.6612 199.885 11.8419C197.588 11.1716 195.291 11.1716 192.921 11.2461C190.698 11.3206 190.031 11.9909 190.031 14.2252C189.957 16.8319 189.957 19.3642 189.957 21.8964ZM320.719 48.4849C320.719 37.5367 320.719 26.5885 320.719 15.6403C320.719 15.1934 320.719 14.821 320.719 14.3742C320.571 12.3633 319.534 11.3206 317.46 11.2461C316.126 11.1716 314.793 11.2461 313.459 11.2461C312.866 11.2461 312.274 11.4695 311.755 10.9482C311.829 10.2034 312.422 10.3524 312.866 10.3524C321.016 10.3524 329.239 10.2034 337.389 10.4269C345.612 10.6503 353.169 16.9809 355.762 25.0989C361.022 41.633 347.539 53.7728 334.87 53.6983C327.758 53.6239 320.645 53.6983 313.533 53.6983C312.94 53.6983 312.274 53.8473 311.533 53.326C312.2 52.6557 312.866 52.8791 313.385 52.8791C314.718 52.8791 316.052 52.8791 317.386 52.8791C319.608 52.8046 320.497 51.8364 320.645 49.6021C320.719 49.2297 320.719 48.8573 320.719 48.4849ZM327.239 31.9509C327.239 37.9091 327.239 43.9418 327.239 49.9C327.239 52.2088 327.906 52.8046 330.128 52.8791C331.758 52.8791 333.388 52.9536 335.018 52.8791C339.611 52.7301 343.242 50.7192 345.687 46.7719C347.983 43.1225 348.946 39.0263 349.169 34.7066C349.465 29.4931 349.391 24.2797 347.242 19.3642C345.316 14.8955 342.056 12.2143 337.167 11.544C334.796 11.1716 332.499 11.3206 330.128 11.3206C327.535 11.3206 327.165 11.6185 327.165 14.2252C327.239 20.1089 327.239 25.9927 327.239 31.9509ZM391.768 50.8682C384.508 56.9009 374.58 56.454 367.838 49.8255C358.207 40.2924 358.207 24.5776 367.838 14.97C371.32 11.544 375.766 9.68209 380.507 9.68209C385.767 9.68209 390.064 11.9164 393.62 15.6403C403.103 25.5458 402.214 42.1543 391.768 50.8682ZM369.172 20.1834C368.135 26.8119 368.283 33.4404 368.653 40.0689C368.727 41.8564 368.95 43.6439 369.394 45.4313C370.802 51.1661 374.951 54.2197 380.952 53.9963C386.656 53.7728 390.657 50.1979 391.62 44.5376C392.287 40.4413 392.361 36.3451 392.361 32.2488C392.361 28.227 392.287 24.1307 391.62 20.1089C390.583 14.2252 386.212 10.4269 380.507 10.4269C374.654 10.5758 370.135 14.3742 369.172 20.1834ZM448.666 10.4269C443.258 10.4269 437.85 10.4269 432.442 10.4269C432.145 10.4269 431.849 10.4269 431.553 10.5013C431.33 10.5013 431.108 10.5758 431.108 10.9482C431.108 11.2461 431.33 11.3206 431.553 11.3206C431.997 11.3206 432.367 11.3206 432.812 11.3951C435.85 11.6185 438.294 12.8846 439.628 15.7148C440.517 17.5022 441.036 19.4386 441.11 21.4495C441.48 28.8228 441.184 36.1961 441.258 43.5694C441.258 43.8673 441.332 44.1652 440.961 44.3886C440.443 44.3142 440.369 43.8673 440.146 43.5694C436.739 38.5794 433.331 33.5894 429.923 28.5994C426.07 22.9391 422.144 17.2788 418.217 11.544C417.772 10.9482 417.402 10.3524 416.513 10.4269C412.661 10.4269 408.808 10.4269 404.956 10.4269C404.585 10.4269 404.067 10.3524 404.067 11.0227C404.807 11.4695 405.548 11.2461 406.363 11.2461C409.327 11.3951 411.031 12.6612 412.068 15.4913C412.586 16.8319 412.883 18.247 412.883 19.7366C412.883 27.4078 412.883 35.0789 412.883 42.7501C412.883 44.3142 412.586 45.8782 412.068 47.3677C410.957 51.0916 409.104 52.4322 405.326 52.8046C404.881 52.8791 404.215 52.5812 403.992 53.4004C404.585 53.8473 405.252 53.6983 405.919 53.6983C411.401 53.6983 416.883 53.6983 422.366 53.6983C423.033 53.6983 424.366 54.0707 424.366 53.326C424.366 52.4322 423.107 52.8791 422.366 52.8791C418.81 52.7301 416.365 51.1661 415.031 47.7401C414.068 45.2824 413.846 42.6757 413.846 40.0689C413.772 32.9936 413.846 25.9182 413.846 18.8428C413.846 18.3215 413.624 17.7257 414.068 17.2788C414.661 17.5767 414.883 18.1725 415.254 18.6194C423.329 30.3869 431.404 42.2288 439.48 54.0707C439.702 54.3686 439.85 54.741 440.146 54.9645C440.591 55.3368 441.184 55.3368 441.702 55.1134C442.443 54.8155 442.147 54.0707 442.147 53.5494C442.147 43.4949 442.147 33.4404 442.147 23.4604C442.147 21.3006 442.147 19.1407 442.591 16.9809C443.332 13.1825 445.036 11.693 448.815 11.3951C449.259 11.3951 449.778 11.544 450 10.9482C449.63 10.2779 449.111 10.4269 448.666 10.4269ZM308.495 10.4269C302.791 10.4269 297.086 10.4269 291.307 10.4269C290.937 10.4269 290.418 10.3524 290.418 11.0227C290.937 11.4695 291.529 11.2461 292.122 11.3206C295.678 11.6185 298.197 13.3315 299.457 16.7575C300.272 18.9918 300.642 21.3006 300.642 23.6839C300.716 30.2379 300.642 36.8664 300.642 43.4204C300.642 43.7928 300.864 44.2397 300.198 44.5376C297.16 40.1434 294.122 35.6748 291.085 31.2806C286.566 24.7266 282.046 18.1725 277.601 11.544C277.157 10.9482 276.86 10.3524 275.971 10.3524C272.119 10.3524 268.266 10.3524 264.414 10.3524C264.043 10.3524 263.525 10.2779 263.599 10.9482C264.118 11.3206 264.784 11.1716 265.377 11.1716C268.859 11.2461 270.711 12.5867 271.748 15.9382C272.045 16.8319 272.193 17.7257 272.267 18.6194C272.712 26.3651 272.489 34.1107 272.415 41.8564C272.415 43.4204 272.193 44.9845 271.823 46.5485C270.785 50.6448 268.785 52.4322 264.71 52.8046C264.266 52.8791 263.525 52.5812 263.525 53.177C263.525 53.9963 264.34 53.5494 264.784 53.6983C265.081 53.7728 265.377 53.6983 265.673 53.6983C271.008 53.6983 276.416 53.6983 281.75 53.6983C282.417 53.6983 283.602 54.2197 283.676 53.2515C283.75 52.5812 282.491 52.8791 281.824 52.8791C277.972 52.7301 275.823 51.2406 274.416 47.6657C273.823 46.1761 273.452 44.6866 273.378 43.1225C273.23 34.6321 273.378 26.2161 273.378 17.8746C273.378 17.7257 273.452 17.5767 273.526 17.2788C274.193 17.6512 274.416 18.3215 274.786 18.8428C282.861 30.6103 290.863 42.3777 298.938 54.1452C299.457 54.9645 300.049 55.4113 301.012 55.1879C302.05 54.89 301.605 53.9962 301.605 53.326C301.605 43.2715 301.605 33.2915 301.605 23.237C301.605 21.4495 301.679 19.5876 301.976 17.8001C302.791 13.1081 304.569 11.3951 308.717 11.3206C309.014 11.3206 309.458 11.3951 309.458 10.7993C309.236 10.3524 308.866 10.4269 308.495 10.4269ZM218.11 52.8791C218.258 52.8791 218.48 52.8046 218.629 52.8046C221.666 52.5067 223.666 50.7192 225.074 48.187C226.482 45.6548 227.371 42.8991 228.408 40.1434C231.964 30.4613 235.594 20.7792 239.076 11.0972C239.447 10.129 239.891 9.60761 241.003 9.68209C242.114 9.68209 242.41 10.3524 242.707 11.1716C246.707 22.9391 250.708 34.7066 254.709 46.474C255.153 47.6657 255.672 48.8573 256.116 50.0489C256.857 51.9109 258.265 52.6557 260.191 52.8791C260.71 52.9536 261.302 52.7301 261.673 53.5494C255.079 53.7728 248.411 53.8473 241.669 53.7728C241.966 52.8046 242.484 52.9536 242.855 52.9536C244.262 52.9536 245.596 52.9536 247.004 52.9536C249.078 52.8791 249.893 51.8364 249.3 49.9C248.337 46.623 247.152 43.346 246.115 40.0689C245.892 39.3986 245.522 39.2497 244.929 39.2497C240.262 39.2497 235.52 39.2497 230.853 39.2497C230.112 39.2497 229.742 39.5476 229.593 40.2179C229.001 42.4522 228.186 44.6121 227.741 46.8464C227.223 48.9318 228.482 51.0171 230.482 52.0598C231.742 52.7301 233.075 52.8791 234.483 52.9536C235.002 52.9536 235.668 52.7301 236.113 53.326C235.965 53.9218 235.446 53.7728 235.076 53.7728C229.741 53.7728 224.333 53.7728 218.999 53.7728C218.777 53.7728 218.48 53.7728 218.258 53.7728C217.962 53.7728 217.814 53.6239 217.814 53.326C217.814 53.1025 217.888 52.9536 218.11 52.8791ZM230.927 36.4195C230.631 37.2388 230.482 37.7601 231.742 37.7601C235.891 37.6857 240.04 37.7601 244.188 37.7601C245.151 37.7601 245.3 37.4622 245.003 36.5685C244.114 33.9618 243.225 31.2806 242.336 28.6739C241.003 24.7266 239.669 20.8537 238.187 16.534C237.446 18.6194 236.78 20.4069 236.187 22.1198C234.409 26.9609 232.631 31.653 230.927 36.4195Z" fill="#231420"/>
</svg>
