<svg width="13" height="15" viewBox="0 0 13 15" fill="none" xmlns="http://www.w3.org/2000/svg">
<path d="M10.5449 7.93379C10.5114 8.3355 10.5784 8.73721 10.7792 9.13892C11.0805 9.97582 11.6831 10.6119 12.5869 11.0136C12.3191 11.884 11.884 12.6874 11.3483 13.4573C10.6119 14.4616 9.8754 14.9972 9.1724 14.9972C8.83764 14.9972 8.43593 14.8968 7.96727 14.6959C7.43165 14.4951 6.96299 14.3946 6.59476 14.3946C6.19304 14.3946 5.72438 14.5285 5.15529 14.7294C4.68663 14.9303 4.31839 14.9972 4.08406 14.9972C3.58192 15.0307 3.04631 14.7629 2.51069 14.1938C2.07551 13.7921 1.64032 13.1895 1.23861 12.453C0.90385 11.8505 0.636042 11.3149 0.468663 10.8127C0.133904 9.87539 0 8.97155 0 8.10117C0 7.16385 0.16738 6.32695 0.569091 5.62395C0.90385 4.98791 1.37251 4.48577 1.97508 4.15101C2.57765 3.81625 3.18021 3.64887 3.84973 3.6154C4.18449 3.6154 4.75358 3.7493 5.49005 4.01711C5.95871 4.21797 6.26 4.28492 6.3939 4.28492C6.5278 4.28492 6.79561 4.21797 7.2308 4.05059C7.63251 3.91668 7.96727 3.78278 8.23508 3.71583C8.63679 3.6154 9.0385 3.58192 9.37326 3.58192C10.6453 3.71583 11.5827 4.21797 12.2187 5.08834C11.0805 5.75786 10.5114 6.72866 10.5449 7.93379ZM8.63679 2.41027V2.44374C7.90032 3.28064 7.13037 3.64887 6.32695 3.58192C6.22652 2.71155 6.49433 1.90813 7.16385 1.17166C7.43165 0.870374 7.76641 0.602566 8.2016 0.368235C8.60331 0.16738 9.0385 0.0334759 9.44021 0C9.50716 0.90385 9.23935 1.70727 8.63679 2.41027Z" fill="#000000"/>
</svg>