  
<svg width="22" height="22" viewBox="0 0 22 22" fill="none" xmlns="http://www.w3.org/2000/svg">
<path d="M11 5.60938C11.9375 5.60938 12.8281 5.89062 13.6719 6.35938C14.5156 6.82812 15.1719 7.48438 15.6406 8.32812C16.1094 9.17188 16.3906 10.0625 16.3906 11C16.3906 11.9844 16.1094 12.875 15.6406 13.7188C15.1719 14.5625 14.5156 15.2188 13.6719 15.6875C12.8281 16.1562 11.9375 16.3906 11 16.3906C10.0156 16.3906 9.125 16.1562 8.28125 15.6875C7.4375 15.2188 6.78125 14.5625 6.3125 13.7188C5.84375 12.875 5.60938 11.9844 5.60938 11C5.60938 10.0625 5.84375 9.17188 6.3125 8.32812C6.78125 7.48438 7.4375 6.82812 8.28125 6.35938C9.125 5.89062 10.0156 5.60938 11 5.60938ZM11 14.5156C11.9375 14.5156 12.7812 14.1875 13.4844 13.4844C14.1406 12.8281 14.5156 11.9844 14.5156 11C14.5156 10.0625 14.1406 9.21875 13.4844 8.51562C12.7812 7.85938 11.9375 7.48438 11 7.48438C10.0156 7.48438 9.17188 7.85938 8.51562 8.51562C7.8125 9.21875 7.48438 10.0625 7.48438 11C7.48438 11.9844 7.8125 12.8281 8.51562 13.4844C9.17188 14.1875 10.0156 14.5156 11 14.5156ZM17.8906 5.375C17.8906 5.04688 17.75 4.76562 17.5156 4.48438C17.2344 4.25 16.9531 4.10938 16.625 4.10938C16.25 4.10938 15.9688 4.25 15.7344 4.48438C15.4531 4.76562 15.3594 5.04688 15.3594 5.375C15.3594 5.75 15.4531 6.03125 15.7344 6.26562C15.9688 6.54688 16.25 6.64062 16.625 6.64062C16.9531 6.64062 17.2344 6.54688 17.4688 6.26562C17.7031 6.03125 17.8438 5.75 17.8906 5.375ZM21.4531 6.64062C21.4531 7.53125 21.5 8.98438 21.5 11C21.5 13.0625 21.4531 14.5156 21.4062 15.4062C21.3594 16.2969 21.2188 17.0469 21.0312 17.7031C20.75 18.5 20.2812 19.2031 19.7188 19.7656C19.1562 20.3281 18.4531 20.75 17.7031 21.0312C17.0469 21.2656 16.25 21.4062 15.3594 21.4531C14.4688 21.5 13.0156 21.5 11 21.5C8.9375 21.5 7.48438 21.5 6.59375 21.4531C5.70312 21.4062 4.95312 21.2656 4.29688 20.9844C3.5 20.75 2.79688 20.3281 2.23438 19.7656C1.67188 19.2031 1.25 18.5 0.96875 17.7031C0.734375 17.0469 0.59375 16.2969 0.546875 15.4062C0.5 14.5156 0.5 13.0625 0.5 11C0.5 8.98438 0.5 7.53125 0.546875 6.64062C0.59375 5.75 0.734375 4.95312 0.96875 4.29688C1.25 3.54688 1.67188 2.84375 2.23438 2.28125C2.79688 1.71875 3.5 1.25 4.29688 0.96875C4.95312 0.78125 5.70312 0.640625 6.59375 0.59375C7.48438 0.546875 8.9375 0.5 11 0.5C13.0156 0.5 14.4688 0.546875 15.3594 0.59375C16.25 0.640625 17.0469 0.78125 17.7031 0.96875C18.4531 1.25 19.1562 1.71875 19.7188 2.28125C20.2812 2.84375 20.75 3.54688 21.0312 4.29688C21.2188 4.95312 21.3594 5.75 21.4531 6.64062ZM19.2031 17.1875C19.3906 16.6719 19.4844 15.8281 19.5781 14.6562C19.5781 14 19.625 13.0156 19.625 11.75V10.25C19.625 8.98438 19.5781 8 19.5781 7.34375C19.4844 6.17188 19.3906 5.32812 19.2031 4.8125C18.8281 3.875 18.125 3.17188 17.1875 2.79688C16.6719 2.60938 15.8281 2.51562 14.6562 2.42188C13.9531 2.42188 12.9688 2.375 11.75 2.375H10.25C8.98438 2.375 8 2.42188 7.34375 2.42188C6.17188 2.51562 5.32812 2.60938 4.8125 2.79688C3.82812 3.17188 3.17188 3.875 2.79688 4.8125C2.60938 5.32812 2.46875 6.17188 2.42188 7.34375C2.375 8.04688 2.375 9.03125 2.375 10.25V11.75C2.375 13.0156 2.375 14 2.42188 14.6562C2.46875 15.8281 2.60938 16.6719 2.79688 17.1875C3.17188 18.1719 3.875 18.8281 4.8125 19.2031C5.32812 19.3906 6.17188 19.5312 7.34375 19.5781C8 19.625 8.98438 19.625 10.25 19.625H11.75C13.0156 19.625 14 19.625 14.6562 19.5781C15.8281 19.5312 16.6719 19.3906 17.1875 19.2031C18.125 18.8281 18.8281 18.125 19.2031 17.1875Z" fill="#000000"/>
</svg>