<svg width="21" height="21" viewBox="0 0 21 21" fill="none" xmlns="http://www.w3.org/2000/svg">
<path d="M19.5 0C19.875 0 20.25 0.1875 20.5312 0.46875C20.8125 0.75 21 1.125 21 1.5V19.5C21 19.9219 20.8125 20.2969 20.5312 20.5781C20.25 20.8594 19.875 21 19.5 21H1.5C1.07812 21 0.703125 20.8594 0.421875 20.5781C0.140625 20.2969 0 19.9219 0 19.5V1.5C0 1.125 0.140625 0.75 0.421875 0.46875C0.703125 0.1875 1.07812 0 1.5 0H19.5ZM6.32812 18H6.375V7.96875H3.23438V18H6.32812ZM4.78125 6.60938C5.25 6.60938 5.67188 6.46875 6.04688 6.09375C6.42188 5.71875 6.60938 5.29688 6.60938 4.82812C6.60938 4.35938 6.42188 3.9375 6.04688 3.5625C5.67188 3.1875 5.25 3 4.78125 3C4.26562 3 3.84375 3.1875 3.51562 3.5625C3.14062 3.9375 3 4.35938 3 4.82812C3 5.29688 3.14062 5.71875 3.51562 6.09375C3.84375 6.46875 4.26562 6.60938 4.78125 6.60938ZM18 18V12.5156C18 10.9688 17.7656 9.84375 17.3438 9.09375C16.7344 8.20312 15.7031 7.73438 14.2969 7.73438C13.5469 7.73438 12.9375 7.92188 12.375 8.25C11.9062 8.53125 11.5312 8.90625 11.3438 9.32812H11.2969V7.96875H8.29688V18H11.3906V13.0312C11.3906 12.2812 11.4844 11.6719 11.7188 11.25C12 10.7344 12.5156 10.4531 13.2656 10.4531C13.9688 10.4531 14.4375 10.7812 14.6719 11.3438C14.8125 11.7188 14.9062 12.3281 14.9062 13.125V18H18Z" fill="#000000"/>
</svg>