<svg width="15" height="15" viewBox="0 0 15 15" fill="none" xmlns="http://www.w3.org/2000/svg">
<path d="M13.5817 14.9908C13.3274 14.9908 13.0731 14.9908 12.8188 14.9908C12.5555 14.9908 12.3557 14.8438 12.283 14.5865C12.2739 14.5405 12.2648 14.4946 12.2648 14.4487C12.2467 13.9524 12.1922 13.4654 12.1195 12.9692C12.0015 12.2341 11.8108 11.5173 11.5656 10.819C11.3567 10.2309 11.1024 9.67034 10.8118 9.119C10.2124 7.99793 9.4495 6.98714 8.54133 6.10498C7.51509 5.11257 6.36171 4.32231 5.06302 3.73421C4.37281 3.42178 3.64627 3.17367 2.91065 2.99908C2.47472 2.898 2.02972 2.8153 1.58471 2.76017C1.26685 2.72341 0.94899 2.69584 0.631129 2.67746C0.358677 2.66827 0.149797 2.48449 0.104388 2.21801C0.0953064 2.19044 0.0953064 2.17207 0.0953064 2.15369C0.0953064 1.62072 0.0953064 1.08776 0.0953064 0.55479C0.0953064 0.288307 0.249696 0.0953366 0.440413 0.0310132C0.503985 0.00344599 0.576639 -0.00574318 0.649293 0.00344588C1.01256 0.021824 1.37583 0.0402021 1.7391 0.0861474C2.06605 0.122904 2.38391 0.168849 2.70177 0.223983C3.41923 0.35263 4.11852 0.536412 4.80873 0.766138C5.62609 1.04181 6.40712 1.39099 7.1609 1.8045C8.02367 2.28233 8.83195 2.83368 9.58573 3.46772C10.1579 3.95474 10.6937 4.48771 11.1932 5.05743C11.8198 5.77418 12.3738 6.53687 12.8461 7.3547C13.282 8.09901 13.6544 8.88008 13.9631 9.69791C14.2628 10.4974 14.4899 11.3244 14.6533 12.1606C14.7351 12.5833 14.7896 12.9968 14.835 13.4287C14.8713 13.7687 14.8895 14.0995 14.9076 14.4395C14.9167 14.6968 14.7623 14.9081 14.5262 14.9816C14.4717 15 14.4081 15 14.3446 15C14.0903 14.9908 13.836 14.9908 13.5817 14.9908Z" fill="#000000"/>
<path d="M8.81276 14.9816C8.54939 14.9816 8.2951 14.9816 8.03173 14.9816C7.74111 14.9816 7.51407 14.7703 7.4959 14.4762C7.43233 13.5573 7.21437 12.6752 6.83294 11.839C6.56957 11.26 6.24262 10.7271 5.84303 10.2309C5.28904 9.55088 4.63515 8.97197 3.88137 8.5217C3.39096 8.22765 2.8733 7.99793 2.33747 7.82334C2.01961 7.72226 1.69267 7.63955 1.35664 7.58442C1.10236 7.53848 0.848066 7.51091 0.602859 7.49253C0.321325 7.47415 0.103363 7.24442 0.103363 6.95956C0.103363 6.4266 0.103363 5.90282 0.103363 5.36986C0.103363 5.17689 0.176017 5.02067 0.330407 4.90121C0.430306 4.8277 0.539287 4.80013 0.666431 4.80932C1.59277 4.85527 2.50094 5.03905 3.38187 5.34229C4.30821 5.66391 5.17098 6.11417 5.97017 6.69308C6.6513 7.1801 7.2507 7.74982 7.78652 8.39306C8.34051 9.04548 8.79459 9.76223 9.16695 10.5341C9.51205 11.2509 9.76634 11.9952 9.92981 12.7762C10.0297 13.2541 10.1024 13.7411 10.1387 14.2281C10.1478 14.3108 10.1569 14.3935 10.1478 14.4762C10.1296 14.7703 9.91165 14.9724 9.61195 14.9816C9.3395 14.9908 9.07613 14.9816 8.81276 14.9816Z" fill="#000000"/>
<path d="M4.33546 12.8498C4.32638 14.0352 3.3728 15 2.20125 14.9908C1.02971 14.9816 0.0488808 13.9984 0.0942895 12.7579C0.130617 11.6276 1.05695 10.6903 2.21942 10.6995C3.39096 10.6995 4.33546 11.6644 4.33546 12.8498Z" fill="#000000"/>
</svg>