<svg width="25" height="10" viewBox="0 0 25 10" fill="none" xmlns="http://www.w3.org/2000/svg">
<path d="M19.6663 8.80352C19.6663 8.91687 19.6539 8.99244 19.5045 8.97984C19.3925 8.96725 19.2804 8.97984 19.1684 8.97984H15.8449C15.7454 8.97984 15.6333 8.97984 15.5338 8.97984C15.4591 8.97984 15.4466 8.92946 15.4466 8.87909C15.4466 8.8413 15.4466 8.80352 15.4466 8.75314V0.176322C15.4466 1.95179e-07 15.4466 0 15.6209 0C16.9154 0 18.1975 0 19.492 0C19.6539 0 19.6539 -9.00825e-08 19.6539 0.163728C19.6539 3.04786 19.6539 5.93198 19.6663 8.80352Z" fill="#000000"/>
<path d="M14.7993 9.8111C14.7993 10 14.7993 10 14.6126 10H10.8411C10.6544 10 10.6544 10 10.6544 9.8111V1.52394C10.6544 1.30984 10.6668 1.29724 10.8784 1.29724C12.0858 1.29724 13.3056 1.29724 14.513 1.29724C14.7993 1.29724 14.7993 1.29724 14.7993 1.58691C14.7993 4.33251 14.7993 7.0781 14.7993 9.8111Z" fill="#000000"/>
<path d="M9.96977 0.780878C9.96977 3.4635 9.96977 6.14612 9.96977 8.81614C9.96977 9.00506 9.95732 9.01766 9.77061 9.01766H5.88703C5.70032 9.01766 5.70032 9.01766 5.70032 8.81614V0.743095C5.70032 0.566773 5.70032 0.566772 5.87458 0.566772C7.16911 0.566772 8.46363 0.566772 9.77061 0.566772C9.95732 0.579367 9.96977 0.591961 9.96977 0.780878Z" fill="#000000"/>
<path d="M5.05305 2.10348V9.3327C5.05305 9.49643 5.05305 9.49643 4.87879 9.49643H1.20682C1.15703 9.49643 1.09479 9.49643 1.045 9.50902C0.932977 9.53421 0.908081 9.48383 0.908081 9.38308C0.908081 8.81633 0.908081 8.23698 0.908081 7.67023V2.11607C0.908081 1.91456 0.908081 1.92716 1.09479 1.92716C2.35198 1.92716 3.62161 1.92716 4.87879 1.92716C5.05305 1.92716 5.05305 1.92716 5.05305 2.10348Z" fill="#000000"/>
<path d="M24.4709 5.02502C24.4709 6.10815 24.4709 7.20387 24.4709 8.28699C24.4709 8.4885 24.4834 8.46331 24.2967 8.46331C23.7117 8.45072 23.1266 8.46331 22.5416 8.46331C21.857 8.46331 21.1724 8.46331 20.4753 8.46331C20.3135 8.46331 20.3135 8.46331 20.3135 8.29959V1.71268C20.3135 1.54895 20.3135 1.54895 20.4753 1.54895C21.7699 1.54895 23.0644 1.54895 24.3589 1.54895C24.4709 1.54895 24.4709 1.61192 24.4709 1.68749C24.4709 2.8084 24.4709 3.91671 24.4709 5.02502Z" fill="#000000"/>
</svg>