<svg width="25" height="17" viewBox="0 0 25 17" fill="none" xmlns="http://www.w3.org/2000/svg">
<path d="M24.2393 1.02248C24.2393 0.845112 24.2496 0.678176 24.2393 0.500807C24.229 0.219103 24.0537 0.0417339 23.7753 0.0104335C23.6825 0 23.6 0 23.5175 0C19.8569 0 16.1963 0 12.5356 0C12.0304 0 11.8551 0.187803 11.8551 0.68861C11.8551 1.56502 11.8551 2.44143 11.8551 3.31785C11.8551 3.67259 11.8241 3.70389 11.4735 3.70389H11.3498C8.90596 3.70389 6.47242 3.70389 4.02857 3.70389C3.03866 3.70389 2.04874 3.70389 1.06914 3.70389C0.697923 3.70389 0.502004 3.90212 0.471069 4.27773C0.471069 4.34033 0.471069 4.40293 0.471069 4.46553C0.471069 8.12768 0.471069 11.7794 0.471069 15.4416C0.471069 15.5563 0.471067 15.6711 0.481378 15.7754C0.522625 16.0467 0.708233 16.2241 0.976334 16.2554C1.04852 16.2658 1.11039 16.2554 1.18257 16.2554C4.84319 16.2554 8.50381 16.2554 12.1644 16.2554C12.7006 16.2554 12.8862 16.0676 12.8862 15.5146C12.8862 14.659 12.8862 13.8139 12.8862 12.9584C12.8862 12.5515 12.9069 12.5306 13.309 12.5306C16.5469 12.5306 19.7847 12.5306 23.0225 12.5306C23.2597 12.5306 23.5072 12.541 23.7444 12.5306C24.0537 12.5202 24.229 12.3324 24.2496 12.0194C24.2496 11.9463 24.2496 11.8837 24.2496 11.8107V1.02248H24.2393ZM11.4632 15.2329C8.24602 15.2329 5.03911 15.2329 1.82189 15.2329C1.53316 15.2329 1.48161 15.1807 1.48161 14.8781C1.48161 11.769 1.4816 8.65979 1.49191 5.54018C1.49191 5.40454 1.49191 5.25847 1.49191 5.12284C1.49191 4.77853 1.51254 4.74723 1.85282 4.74723C2.84274 4.74723 3.83265 4.74723 4.81225 4.74723H6.68897C8.28727 4.74723 9.88556 4.74723 11.4839 4.74723C11.8241 4.74723 11.8448 4.7681 11.8448 5.12284C11.8448 8.35722 11.8448 11.5916 11.8448 14.826C11.8448 15.2016 11.8241 15.2329 11.4632 15.2329ZM19.1351 8.92063C18.4442 8.93106 17.7636 8.92063 17.0728 8.92063C16.7943 8.92063 16.7118 8.82672 16.7118 8.53459C16.7118 8.41982 16.7222 8.30505 16.7325 8.20072C16.7634 7.88771 16.8046 7.84598 17.114 7.84598C17.609 7.84598 17.578 7.83554 17.5677 7.36604C17.5677 7.00086 17.5677 6.63569 17.5677 6.27052C17.5677 5.85318 17.5677 5.43584 17.5677 5.0185C17.5677 4.75767 17.5368 4.72637 17.2893 4.72637C16.8047 4.7055 16.784 4.69507 16.7943 4.20469C16.7943 3.66215 16.8047 3.64128 17.3409 3.64128C17.9286 3.64128 18.5061 3.64128 19.0938 3.64128C19.3516 3.64128 19.4341 3.72475 19.4444 3.97516C19.4444 4.13166 19.4444 4.28816 19.4444 4.44466C19.4444 4.62203 19.3413 4.7055 19.166 4.72637C18.6711 4.77853 18.6711 4.77853 18.6711 5.27934C18.6711 6.03055 18.6711 6.77133 18.6711 7.52254C18.6711 7.80424 18.702 7.83554 18.9804 7.84598C19.0423 7.84598 19.1041 7.84598 19.166 7.84598C19.4754 7.85641 19.5372 7.91901 19.5372 8.24245C19.5372 8.33635 19.5372 8.43025 19.5372 8.53459C19.5269 8.82672 19.4547 8.91019 19.1351 8.92063Z" fill="#000000"/>
<path d="M8.09131 7.9297C8.09131 8.3679 8.07068 8.38877 7.62728 8.3992C7.49323 8.3992 7.34887 8.3992 7.21482 8.3992C7.04983 8.3992 6.96734 8.49311 6.95703 8.66004C6.95703 8.85828 6.95703 9.05651 6.95703 9.25475C6.95703 10.2355 6.95703 11.2162 6.95703 12.197C6.95703 12.51 6.9261 12.5413 6.61675 12.5413C6.00836 12.5309 6.01868 12.6352 6.01868 11.9362C6.01868 11.4458 6.01868 10.9658 6.01868 10.4755C6.01868 9.90163 6.01868 9.32778 6.01868 8.75394C6.01868 8.44094 5.96712 8.38877 5.65777 8.38877C5.47216 8.38877 5.29686 8.38877 5.12156 8.38877C4.96689 8.38877 4.8844 8.3053 4.8844 8.1488C4.8844 7.97143 4.8844 7.8045 4.89471 7.62713C4.90502 7.47062 5.00814 7.41846 5.14219 7.41846C5.41029 7.41846 5.66808 7.41846 5.93618 7.41846C6.54457 7.41846 7.15295 7.41846 7.76133 7.41846C8.06037 7.41846 8.09131 7.46019 8.10162 7.76276C8.09131 7.82536 8.09131 7.87753 8.09131 7.9297Z" fill="#2456EA"/>
</svg>