<svg width="24" height="20" viewBox="0 0 24 20" fill="none" xmlns="http://www.w3.org/2000/svg">
<path d="M21.5156 4.875C22.4531 4.17188 23.2969 3.32812 24 2.29688C23.0625 2.71875 22.125 3 21.1875 3.09375C22.2188 2.4375 22.9688 1.54688 23.3438 0.375C22.3594 0.9375 21.3281 1.35938 20.2031 1.54688C19.7344 1.07812 19.1719 0.703125 18.5625 0.421875C17.9531 0.140625 17.2969 0 16.5938 0C15.7031 0 14.9062 0.234375 14.1562 0.65625C13.4062 1.125 12.7969 1.73438 12.375 2.48438C11.9062 3.23438 11.7188 4.07812 11.7188 4.92188C11.7188 5.29688 11.7188 5.67188 11.8125 6.04688C9.79688 5.95312 7.92188 5.48438 6.14062 4.54688C4.35938 3.65625 2.90625 2.4375 1.6875 0.890625C1.21875 1.6875 0.984375 2.53125 0.984375 3.375C0.984375 4.21875 1.17188 5.01562 1.59375 5.71875C1.96875 6.46875 2.53125 7.03125 3.1875 7.5C2.39062 7.5 1.64062 7.26562 0.984375 6.84375V6.9375C0.984375 8.10938 1.35938 9.14062 2.10938 10.0312C2.85938 10.9688 3.79688 11.5312 4.92188 11.7656C4.45312 11.8594 4.03125 11.9062 3.60938 11.9062C3.32812 11.9062 3 11.9062 2.71875 11.8594C3 12.8438 3.5625 13.6406 4.40625 14.2969C5.25 14.9531 6.1875 15.2344 7.3125 15.2344C5.48438 16.6406 3.42188 17.3438 1.17188 17.3438C0.703125 17.3438 0.328125 17.3438 0 17.2969C2.25 18.7969 4.78125 19.5 7.54688 19.5C10.4062 19.5 12.9375 18.7969 15.1875 17.2969C17.2031 15.9844 18.7969 14.25 19.9219 12C21 9.9375 21.5625 7.73438 21.5625 5.48438C21.5625 5.20312 21.5156 5.01562 21.5156 4.875Z" fill="#000000"/>
</svg>